<?xml version="1.0" encoding="UTF-8"?>
<!DOCTYPE svg PUBLIC "-//W3C//DTD SVG 1.1//EN" "http://www.w3.org/Graphics/SVG/1.1/DTD/svg11.dtd">
<!-- Creator: CorelDRAW 2018 (64-Bit) -->
<svg xmlns="http://www.w3.org/2000/svg" xml:space="preserve" width="100px" height="100px" version="1.1" style="shape-rendering:geometricPrecision; text-rendering:geometricPrecision; image-rendering:optimizeQuality; fill-rule:evenodd; clip-rule:evenodd"
viewBox="0 0 100 100"
 xmlns:xlink="http://www.w3.org/1999/xlink">
 <defs>
  <style type="text/css">
   <![CDATA[
    .fil0 {fill:none}
    .fil1 {fill:#282826;fill-rule:nonzero}
   ]]>
  </style>
 </defs>
 <g id="Layer_x0020_1">
  <metadata id="CorelCorpID_0Corel-Layer"/>
  <rect class="fil0" x="-0.09" y="0.06" width="100" height="100"/>
  <g id="_2208026741200">
   <polygon class="fil1" points="2.33,88.36 7.72,88.36 7.72,11.77 2.33,11.77 "/>
   <polygon class="fil1" points="17.1,66.83 31.07,66.83 31.07,11.77 17.1,11.77 "/>
   <polygon class="fil1" points="38.31,66.83 40.95,66.83 40.95,11.77 38.31,11.77 "/>
   <polygon class="fil1" points="71.35,66.83 72.78,66.83 72.78,11.77 71.35,11.77 "/>
   <polygon class="fil1" points="83.69,88.36 98.33,88.36 98.33,11.77 83.69,11.77 "/>
   <polygon class="fil1" points="50.71,66.83 62.84,66.83 62.84,11.77 50.71,11.77 "/>
   <path class="fil1" d="M17.53 86.46c0.47,0.3 1.58,0.77 2.74,0.77 2.15,0 2.82,-1.35 2.8,-2.36 -0.02,-1.7 -1.58,-2.43 -3.2,-2.43l-0.93 0 0 -1.24 0.93 0c1.22,0 2.76,-0.61 2.76,-2.05 0,-0.98 -0.63,-1.84 -2.17,-1.84 -0.99,0 -1.94,0.43 -2.47,0.81l-0.44 -1.2c0.64,-0.47 1.9,-0.94 3.23,-0.94 2.44,0 3.54,1.43 3.54,2.9 0,1.26 -0.76,2.32 -2.28,2.87l0 0.03c1.52,0.3 2.76,1.43 2.76,3.13 0,1.95 -1.54,3.65 -4.51,3.65 -1.39,0 -2.61,-0.43 -3.22,-0.82l0.46 -1.28z"/>
   <path class="fil1" d="M41.41 77.57l-4.72 0 -0.48 3.13c0.29,-0.04 0.55,-0.07 1.01,-0.07 0.95,0 1.91,0.2 2.67,0.65 0.97,0.54 1.77,1.59 1.77,3.13 0,2.37 -1.93,4.15 -4.61,4.15 -1.35,0 -2.49,-0.38 -3.08,-0.75l0.42 -1.25c0.51,0.3 1.52,0.67 2.64,0.67 1.58,0 2.93,-1.01 2.93,-2.64 -0.02,-1.57 -1.08,-2.69 -3.56,-2.69 -0.7,0 -1.25,0.07 -1.71,0.13l0.8 -5.84 5.92 0 0 1.38z"/>
   <path class="fil1" d="M52.82 79.11c0,1.22 0.93,1.87 2.36,2.24 1.06,-0.35 1.88,-1.1 1.88,-2.2 0,-0.98 -0.59,-1.98 -2.09,-1.98 -1.39,0 -2.15,0.89 -2.15,1.94zm4.6 6.08c0,-1.48 -1.04,-2.19 -2.72,-2.66 -1.45,0.42 -2.23,1.35 -2.23,2.51 -0.05,1.24 0.9,2.32 2.48,2.32 1.5,0 2.47,-0.92 2.47,-2.17zm-6.66 0.07c0,-1.53 0.93,-2.61 2.46,-3.25l-0.02 -0.05c-1.37,-0.64 -1.96,-1.69 -1.96,-2.74 0,-1.93 1.65,-3.24 3.82,-3.24 2.4,0 3.6,1.48 3.6,3 0,1.03 -0.51,2.13 -2.04,2.84l0 0.06c1.55,0.59 2.5,1.66 2.5,3.14 0,2.12 -1.85,3.54 -4.21,3.54 -2.59,0 -4.15,-1.52 -4.15,-3.3z"/>
   <polygon class="fil1" points="71.45,77.72 71.41,77.72 69.26,78.87 68.93,77.61 71.64,76.19 73.06,76.19 73.06,88.35 71.45,88.35 "/>
  </g>
 </g>
</svg>
