<?xml version="1.0" encoding="UTF-8"?>
<!DOCTYPE svg PUBLIC "-//W3C//DTD SVG 1.1//EN" "http://www.w3.org/Graphics/SVG/1.1/DTD/svg11.dtd">
<!-- Creator: CorelDRAW 2018 (64-Bit) -->
<svg xmlns="http://www.w3.org/2000/svg" xml:space="preserve" width="100px" height="100px" version="1.1" style="shape-rendering:geometricPrecision; text-rendering:geometricPrecision; image-rendering:optimizeQuality; fill-rule:evenodd; clip-rule:evenodd"
viewBox="0 0 100 100"
 xmlns:xlink="http://www.w3.org/1999/xlink">
 <defs>
  <style type="text/css">
   <![CDATA[
    .fil2 {fill:none}
    .fil4 {fill:#282826}
    .fil1 {fill:#612D87}
    .fil3 {fill:#282826;fill-rule:nonzero}
    .fil0 {fill:#612D87;fill-rule:nonzero}
   ]]>
  </style>
 </defs>
 <g id="Layer_x0020_1">
  <metadata id="CorelCorpID_0Corel-Layer"/>
  <g id="_2208026737584">
   <polygon class="fil0" points="501.13,356.7 467.86,323.25 467.86,369.73 479.59,358.78 488.05,376.78 492.78,374.62 484.33,356.64 "/>
   <polygon class="fil0" points="517.73,336.49 501.11,336.49 501.11,332.56 513.78,332.56 513.78,303.95 442.37,303.95 442.37,332.56 455.05,332.56 455.05,336.49 438.43,336.49 438.43,300.03 517.73,300.03 "/>
  </g>
  <g id="_2208026731952">
   <polygon class="fil0" points="1.95,88.67 7.33,88.67 7.33,12.09 1.95,12.09 "/>
   <polygon class="fil0" points="16.71,67.14 30.68,67.14 30.68,12.09 16.71,12.09 "/>
   <polygon class="fil0" points="37.93,67.14 40.57,67.14 40.57,12.09 37.93,12.09 "/>
   <polygon class="fil0" points="70.96,67.14 72.39,67.14 72.39,12.09 70.96,12.09 "/>
   <polygon class="fil0" points="83.31,88.67 97.94,88.67 97.94,12.09 83.31,12.09 "/>
   <polygon class="fil0" points="50.33,67.14 62.45,67.14 62.45,12.09 50.33,12.09 "/>
   <path class="fil0" d="M17.14 86.77c0.48,0.3 1.58,0.77 2.74,0.77 2.15,0 2.82,-1.34 2.8,-2.36 -0.02,-1.7 -1.58,-2.43 -3.2,-2.43l-0.93 0 0 -1.23 0.93 0c1.22,0 2.76,-0.62 2.76,-2.06 0,-0.98 -0.63,-1.83 -2.17,-1.83 -0.99,0 -1.94,0.42 -2.47,0.8l-0.44 -1.2c0.65,-0.46 1.91,-0.93 3.24,-0.93 2.43,0 3.54,1.42 3.54,2.9 0,1.25 -0.76,2.32 -2.29,2.86l0 0.04c1.53,0.29 2.76,1.42 2.76,3.12 0,1.95 -1.54,3.65 -4.51,3.65 -1.39,0 -2.6,-0.43 -3.21,-0.82l0.45 -1.28z"/>
   <path class="fil0" d="M41.02 77.89l-4.72 0 -0.47 3.12c0.28,-0.03 0.55,-0.07 1.01,-0.07 0.95,0 1.9,0.2 2.66,0.65 0.97,0.55 1.77,1.59 1.77,3.13 0,2.37 -1.92,4.15 -4.6,4.15 -1.36,0 -2.5,-0.37 -3.09,-0.75l0.42 -1.25c0.51,0.3 1.52,0.67 2.64,0.67 1.58,0 2.94,-1.01 2.94,-2.63 -0.02,-1.58 -1.09,-2.7 -3.56,-2.7 -0.71,0 -1.26,0.07 -1.71,0.13l0.79 -5.84 5.92 0 0 1.39z"/>
   <path class="fil0" d="M52.43 79.42c0,1.22 0.93,1.87 2.36,2.25 1.07,-0.36 1.88,-1.11 1.88,-2.21 0,-0.98 -0.58,-1.98 -2.09,-1.98 -1.39,0 -2.15,0.89 -2.15,1.94zm4.61 6.08c0,-1.47 -1.05,-2.19 -2.72,-2.66 -1.45,0.42 -2.23,1.35 -2.23,2.51 -0.06,1.24 0.89,2.32 2.47,2.32 1.51,0 2.48,-0.91 2.48,-2.17zm-6.66 0.08c0,-1.54 0.93,-2.62 2.45,-3.26l-0.02 -0.05c-1.37,-0.64 -1.96,-1.69 -1.96,-2.74 0,-1.93 1.66,-3.23 3.83,-3.23 2.4,0 3.6,1.48 3.6,2.99 0,1.03 -0.52,2.13 -2.04,2.85l0 0.05c1.54,0.6 2.49,1.66 2.49,3.15 0,2.11 -1.84,3.53 -4.21,3.53 -2.58,0 -4.14,-1.51 -4.14,-3.29z"/>
   <polygon class="fil0" points="71.06,78.04 71.02,78.04 68.87,79.18 68.55,77.92 71.25,76.5 72.68,76.5 72.68,88.66 71.06,88.66 "/>
  </g>
  <g id="_2208026731824">
   <path class="fil1" d="M596.83 368.84c12.43,0.02 22.59,-10.14 22.57,-22.57 -0.02,-12.45 -10.11,-22.52 -22.56,-22.55 -12.42,-0.02 -22.54,10.1 -22.57,22.55 -0.03,12.41 10.11,22.57 22.56,22.57zm3.42 -60.72c0.11,1.01 0.23,2.02 0.35,3 0.17,1.46 0.34,2.91 0.51,4.36l0.19 0.2c2.38,0.34 4.69,0.96 6.93,1.87l0.32 -0.1c1.44,-1.94 2.88,-3.86 4.33,-5.81 0,0 5.93,3.42 5.93,3.42 -0.95,2.22 -1.91,4.46 -2.87,6.67l0.08 0.32c1.88,1.48 3.57,3.18 5.05,5.05l0.32 0.07c2.16,-0.93 4.34,-1.87 6.51,-2.8 0,0 3.55,5.88 3.55,5.88 -1.93,1.45 -3.86,2.88 -5.79,4.33l-0.1 0.27c0.9,2.24 1.52,4.55 1.87,6.94l0.22 0.22c0.51,0.05 1.02,0.12 1.52,0.17 1.7,0.2 3.39,0.4 5.09,0.62 0,0 0,6.98 0,6.98 -1.2,0.14 -2.4,0.28 -3.6,0.43 -1.02,0.12 -2.02,0.25 -3.03,0.34l-0.2 0.2c-0.34,2.39 -0.96,4.7 -1.85,6.94l0.09 0.32c1.89,1.4 3.77,2.81 5.65,4.21 0,0 -3.26,6.03 -3.26,6.03 -2.22,-0.94 -4.44,-1.9 -6.65,-2.86l-0.35 0.1c-1.18,1.5 -2.49,2.86 -3.93,4.11 -0.41,0.37 -0.83,0.69 -1.26,1.06 1.01,2.34 2.02,4.7 3.03,7.04 0,0 -6.02,3.22 -6.02,3.22 -1.45,-1.94 -2.89,-3.86 -4.33,-5.8l-0.31 -0.1c-1.65,0.66 -3.34,1.18 -5.09,1.52 -0.67,0.15 -1.33,0.25 -2.01,0.37l-0.03 0.2c-0.29,2.44 -0.58,4.85 -0.86,7.26 0,0 -6.82,0.07 -6.82,0.07 -0.17,-1.42 -0.34,-2.87 -0.51,-4.3 -0.12,-1.04 -0.24,-2.05 -0.36,-3.05l-0.19 -0.2c-2.38,-0.35 -4.69,-0.96 -6.93,-1.87l-0.32 0.1c-1.41,1.89 -2.82,3.79 -4.23,5.66 0,0 -6.03,-3.28 -6.03,-3.28 0.96,-2.21 1.91,-4.45 2.87,-6.67l-0.08 -0.32c-1.52,-1.18 -2.9,-2.51 -4.16,-3.96 -0.35,-0.39 -0.68,-0.81 -1.03,-1.23l-0.18 0.07c-2.23,0.96 -4.46,1.92 -6.69,2.88 0,0 -3.4,-5.93 -3.4,-5.93 1.93,-1.45 3.86,-2.88 5.8,-4.33l0.1 -0.34c-0.68,-1.7 -1.21,-3.45 -1.56,-5.27 -0.12,-0.59 -0.22,-1.21 -0.33,-1.82l-0.52 -0.05c-2.32,-0.3 -4.63,-0.57 -6.94,-0.84 0,0 -0.19,-5.81 -0.2,-6.79 2.57,-0.32 5.12,-0.62 7.64,-0.91l0.04 -0.08c0.34,-2.41 0.96,-4.77 1.88,-7.06l-0.08 -0.27c-1.33,-0.98 -2.66,-1.97 -3.98,-2.98 -0.67,-0.49 -1.35,-0.98 -2.02,-1.5 0,0 2.56,-4.16 3.58,-5.81 2.23,0.99 4.47,1.92 6.69,2.91l0.3 -0.1c1.39,-1.75 2.96,-3.35 4.71,-4.78l0.5 -0.39 -0.08 -0.2c-0.95,-2.24 -1.91,-4.45 -2.87,-6.67 0,0 5.79,-3.59 5.79,-3.59l0.16 0.2c1.44,1.92 2.88,3.86 4.32,5.78l0.31 0.1c1.71,-0.69 3.47,-1.21 5.29,-1.58 0.6,-0.12 1.2,-0.22 1.81,-0.32l0.04 -0.19c0.28,-2.44 0.57,-4.85 0.85,-7.27 0,0 6.83,-0.07 6.83,-0.07z"/>
   <path class="fil1" d="M578.7 346.27c-0.02,10.02 8.09,18.11 18.12,18.14 10,0.02 18.14,-8.1 18.15,-18.11 0.01,-10.02 -8.09,-18.12 -18.11,-18.14 -10.02,-0.03 -18.14,8.07 -18.16,18.11zm18.14 -21.07c11.61,0 21.06,9.45 21.08,21.07 0,11.62 -9.48,21.09 -21.09,21.09 -11.62,0 -21.11,-9.5 -21.07,-21.09 0.04,-11.64 9.47,-21.07 21.08,-21.07z"/>
  </g>
  <rect class="fil2" x="-0.09" y="0.06" width="100" height="100"/>
  <g id="_2208026731184">
   <polygon class="fil3" points="501.13,548.58 467.86,515.13 467.86,561.61 479.59,550.65 488.05,568.66 492.78,566.49 484.33,548.52 "/>
   <polygon class="fil3" points="517.73,528.37 501.11,528.37 501.11,524.44 513.78,524.44 513.78,495.82 442.37,495.82 442.37,524.44 455.05,524.44 455.05,528.37 438.43,528.37 438.43,491.9 517.73,491.9 "/>
  </g>
  <g id="_2208026731344">
   <path class="fil3" d="M75.42 508.56l-15.64 0 0 -10.65 15.64 0 0 10.65zm2.66 50.68l0 -76.09 -76.89 0 0 76.09 76.89 0zm-2.66 -38.68l-15.64 0 0 -9.31 15.64 0 0 9.31zm0 12l-15.64 0 0 -9.31 15.64 0 0 9.31zm0 12l-15.64 0 0 -9.31 15.64 0 0 9.31zm0 12l-15.64 0 0 -9.32 15.64 0 0 9.32zm-18.36 -48l-16.04 0 0 -10.65 16.04 0 0 10.65zm0 12l-16.04 0 0 -9.31 16.04 0 0 9.31zm0 36l-16.04 0 0 -33.31 16.04 0 0 33.31zm-18.76 -48l-16.04 0 0 -10.65 16.04 0 0 10.65zm0 2.73l0 21.27 -16.04 0 0 -21.31 16.04 0 0 0.04zm0 33.27l-16.04 0 0 -9.31 16.04 0 0 9.31zm0 12l-16.04 0 0 -9.32 16.04 0 0 9.32zm-18.76 -48l-15.64 0 0 -10.65 15.64 0 0 10.65zm0 12l-15.64 0 0 -9.31 15.64 0 0 9.31zm0 12l-15.64 0 0 -9.31 15.64 0 0 9.31zm0 12l-15.64 0 0 -9.31 15.64 0 0 9.31zm0 12l-15.64 0 0 -9.32 15.64 0 0 9.32z"/>
   <polygon class="fil3" points="45.49,552.01 52.59,552.01 52.59,527.8 45.49,527.8 "/>
  </g>
  <g id="_2208026726544">
   <polygon class="fil3" points="309.75,560.18 315.13,560.18 315.13,483.6 309.75,483.6 "/>
   <polygon class="fil3" points="324.52,538.66 338.49,538.66 338.49,483.6 324.52,483.6 "/>
   <polygon class="fil3" points="345.73,538.66 348.37,538.66 348.37,483.6 345.73,483.6 "/>
   <polygon class="fil3" points="378.76,538.66 380.19,538.66 380.19,483.6 378.76,483.6 "/>
   <polygon class="fil3" points="391.11,560.18 405.74,560.18 405.74,483.6 391.11,483.6 "/>
   <polygon class="fil3" points="358.13,538.66 370.26,538.66 370.26,483.6 358.13,483.6 "/>
   <path class="fil3" d="M324.95 558.29c0.47,0.3 1.58,0.77 2.74,0.77 2.15,0 2.81,-1.35 2.79,-2.36 -0.01,-1.7 -1.58,-2.43 -3.19,-2.43l-0.93 0 0 -1.24 0.93 0c1.21,0 2.76,-0.62 2.76,-2.06 0,-0.97 -0.63,-1.83 -2.17,-1.83 -0.99,0 -1.95,0.43 -2.48,0.8l-0.44 -1.19c0.65,-0.47 1.91,-0.94 3.24,-0.94 2.44,0 3.54,1.42 3.54,2.9 0,1.25 -0.76,2.32 -2.28,2.87l0 0.03c1.52,0.3 2.76,1.43 2.76,3.13 0,1.94 -1.54,3.65 -4.51,3.65 -1.39,0 -2.61,-0.43 -3.22,-0.83l0.46 -1.27z"/>
   <path class="fil3" d="M348.83 549.4l-4.72 0 -0.48 3.13c0.29,-0.04 0.55,-0.08 1.01,-0.08 0.95,0 1.9,0.21 2.66,0.66 0.98,0.54 1.77,1.59 1.77,3.12 0,2.38 -1.92,4.16 -4.6,4.16 -1.35,0 -2.5,-0.38 -3.09,-0.75l0.42 -1.25c0.52,0.29 1.53,0.67 2.65,0.67 1.58,0 2.93,-1.01 2.93,-2.64 -0.02,-1.57 -1.09,-2.7 -3.56,-2.7 -0.7,0 -1.26,0.08 -1.71,0.14l0.8 -5.84 5.92 0 0 1.38z"/>
   <path class="fil3" d="M360.24 550.94c0,1.21 0.93,1.87 2.35,2.24 1.07,-0.35 1.89,-1.1 1.89,-2.21 0,-0.97 -0.59,-1.98 -2.09,-1.98 -1.4,0 -2.15,0.9 -2.15,1.95zm4.6 6.07c0,-1.47 -1.05,-2.18 -2.72,-2.65 -1.45,0.41 -2.23,1.35 -2.23,2.51 -0.06,1.23 0.9,2.32 2.48,2.32 1.5,0 2.47,-0.92 2.47,-2.18zm-6.66 0.08c0,-1.53 0.93,-2.62 2.45,-3.25l-0.01 -0.06c-1.37,-0.63 -1.97,-1.68 -1.97,-2.73 0,-1.93 1.66,-3.24 3.83,-3.24 2.4,0 3.6,1.48 3.6,3 0,1.02 -0.52,2.13 -2.04,2.84l0 0.06c1.54,0.59 2.49,1.66 2.49,3.14 0,2.11 -1.84,3.54 -4.2,3.54 -2.59,0 -4.15,-1.52 -4.15,-3.3z"/>
   <polygon class="fil3" points="378.86,549.55 378.82,549.55 376.67,550.7 376.35,549.44 379.05,548.02 380.48,548.02 380.48,560.18 378.86,560.18 "/>
  </g>
  <g id="_2208026721584">
   <polygon class="fil3" points="-187.89,501.04 -170.25,501.04 -170.25,483.53 -187.89,483.53 "/>
   <polygon class="fil3" points="-153.25,501.04 -135.61,501.04 -135.61,483.53 -153.25,483.53 "/>
   <polygon class="fil3" points="-118.61,501.04 -101.05,501.04 -101.05,483.53 -118.61,483.53 "/>
   <polygon class="fil3" points="-187.89,530.27 -170.25,530.27 -170.25,512.76 -187.89,512.76 "/>
   <polygon class="fil3" points="-153.25,530.27 -135.61,530.27 -135.61,512.76 -153.25,512.76 "/>
   <polygon class="fil3" points="-118.61,530.27 -101.05,530.27 -101.05,512.76 -118.61,512.76 "/>
   <polygon class="fil3" points="-187.89,559.51 -170.25,559.51 -170.25,542 -187.89,542 "/>
   <polygon class="fil3" points="-153.25,559.51 -135.61,559.51 -135.61,542 -153.25,542 "/>
   <polygon class="fil3" points="-118.61,559.51 -101.05,559.51 -101.05,542 -118.61,542 "/>
  </g>
  <polygon class="fil3" points="-360,483.7 -360,496.22 -352.78,496.22 -352.78,490.94 -333.29,490.94 -333.29,552.44 -341.82,552.44 -341.82,559.62 -315.12,559.62 -315.12,552.44 -324.75,552.44 -324.75,490.94 -304.16,490.94 -304.16,496.22 -296.94,496.22 -296.94,483.7 "/>
  <polygon class="fil3" points="-484.92,538.18 -484.92,520.96 -510.87,520.96 -510.87,511.87 -492.81,511.87 -492.81,482.87 -532.9,482.87 -532.9,511.87 -514.83,511.87 -514.83,520.96 -540.79,520.96 -540.79,538.18 -549.28,538.18 -549.28,559.71 -519.62,559.71 -519.62,538.18 -536.83,538.18 -536.83,524.87 -488.88,524.87 -488.88,538.18 -506.07,538.18 -506.07,559.71 -476.42,559.71 -476.42,538.18 "/>
  <g id="_2208026723216">
   <path class="fil4" d="M596.83 560.72c12.43,0.02 22.59,-10.14 22.57,-22.57 -0.02,-12.46 -10.11,-22.52 -22.56,-22.55 -12.42,-0.02 -22.54,10.09 -22.57,22.55 -0.03,12.4 10.11,22.57 22.56,22.57zm3.42 -60.72c0.11,1.01 0.23,2.02 0.35,3 0.17,1.45 0.34,2.9 0.51,4.36l0.19 0.19c2.38,0.35 4.69,0.96 6.93,1.87l0.32 -0.1c1.44,-1.94 2.88,-3.86 4.33,-5.8 0,0 5.93,3.42 5.93,3.42 -0.95,2.21 -1.91,4.45 -2.87,6.67l0.08 0.32c1.88,1.47 3.57,3.17 5.05,5.04l0.32 0.08c2.16,-0.94 4.34,-1.87 6.51,-2.81 0,0 3.55,5.88 3.55,5.88 -1.93,1.46 -3.86,2.88 -5.79,4.34l-0.1 0.27c0.9,2.24 1.52,4.55 1.87,6.94l0.22 0.22c0.51,0.05 1.02,0.12 1.52,0.17 1.7,0.2 3.39,0.4 5.09,0.62 0,0 0,6.97 0,6.97 -1.2,0.15 -2.4,0.29 -3.6,0.43 -1.02,0.13 -2.02,0.25 -3.03,0.35l-0.2 0.2c-0.34,2.38 -0.96,4.7 -1.85,6.94l0.09 0.32c1.89,1.4 3.77,2.8 5.65,4.2 0,0 -3.26,6.04 -3.26,6.04 -2.22,-0.94 -4.44,-1.9 -6.65,-2.86l-0.35 0.1c-1.18,1.5 -2.49,2.85 -3.93,4.11 -0.41,0.37 -0.83,0.69 -1.26,1.06 1.01,2.33 2.02,4.7 3.03,7.04 0,0 -6.02,3.22 -6.02,3.22 -1.45,-1.94 -2.89,-3.86 -4.33,-5.81l-0.31 -0.1c-1.65,0.67 -3.34,1.18 -5.09,1.53 -0.67,0.15 -1.33,0.25 -2.01,0.37l-0.03 0.2c-0.29,2.43 -0.58,4.84 -0.86,7.26 0,0 -6.82,0.07 -6.82,0.07 -0.17,-1.43 -0.34,-2.88 -0.51,-4.31 -0.12,-1.03 -0.24,-2.04 -0.36,-3.05l-0.19 -0.2c-2.38,-0.34 -4.69,-0.96 -6.93,-1.87l-0.32 0.1c-1.41,1.9 -2.82,3.79 -4.23,5.66 0,0 -6.03,-3.27 -6.03,-3.27 0.96,-2.22 1.91,-4.46 2.87,-6.67l-0.08 -0.32c-1.52,-1.18 -2.9,-2.51 -4.16,-3.96 -0.35,-0.4 -0.68,-0.81 -1.03,-1.23l-0.18 0.07c-2.23,0.96 -4.46,1.92 -6.69,2.88 0,0 -3.4,-5.93 -3.4,-5.93 1.93,-1.45 3.86,-2.88 5.8,-4.33l0.1 -0.35c-0.68,-1.7 -1.21,-3.44 -1.56,-5.26 -0.12,-0.6 -0.22,-1.21 -0.33,-1.83l-0.52 -0.04c-2.32,-0.3 -4.63,-0.57 -6.94,-0.84 0,0 -0.19,-5.81 -0.2,-6.79 2.57,-0.32 5.12,-0.62 7.64,-0.92l0.04 -0.07c0.34,-2.41 0.96,-4.77 1.88,-7.06l-0.08 -0.27c-1.33,-0.99 -2.66,-1.97 -3.98,-2.98 -0.67,-0.49 -1.35,-0.99 -2.02,-1.5 0,0 2.56,-4.16 3.58,-5.81 2.23,0.98 4.47,1.92 6.69,2.9l0.3 -0.1c1.39,-1.74 2.96,-3.34 4.71,-4.77l0.5 -0.4 -0.08 -0.19c-0.95,-2.24 -1.91,-4.46 -2.87,-6.67 0,0 5.79,-3.6 5.79,-3.6l0.16 0.2c1.44,1.92 2.88,3.87 4.32,5.78l0.31 0.1c1.71,-0.68 3.47,-1.2 5.29,-1.57 0.6,-0.12 1.2,-0.22 1.81,-0.32l0.04 -0.2c0.28,-2.43 0.57,-4.85 0.85,-7.26 0,0 6.83,-0.07 6.83,-0.07z"/>
   <path class="fil4" d="M578.7 538.15c-0.02,10.01 8.09,18.11 18.12,18.14 10,0.02 18.14,-8.1 18.15,-18.12 0.01,-10.02 -8.09,-18.11 -18.11,-18.14 -10.02,-0.02 -18.14,8.07 -18.16,18.12zm18.14 -21.07c11.61,0 21.06,9.45 21.08,21.07 0,11.61 -9.48,21.09 -21.09,21.09 -11.62,0 -21.11,-9.5 -21.07,-21.09 0.04,-11.65 9.47,-21.07 21.08,-21.07z"/>
  </g>
  <path class="fil3" d="M221.52 482.79l0 -0.01c-0.05,0 -0.1,0.01 -0.16,0.01 -0.04,0 -0.09,-0.01 -0.15,-0.01l0 0.01c-25.48,0.23 -46.07,20.3 -46.07,45.05 0,12.42 5.19,23.66 13.56,31.81l9.9 -9.76c-5.77,-5.67 -9.34,-13.45 -9.34,-22.05 0,-17.24 14.35,-31.23 32.1,-31.36 17.76,0.13 32.11,14.12 32.11,31.36 0,8.6 -3.56,16.38 -9.34,22.05l9.9 9.76c8.38,-8.15 13.56,-19.39 13.56,-31.81 0,-24.75 -20.59,-44.82 -46.07,-45.05zm0.86 34.41l-16.72 -4.74 4.84 16.05c0.53,1.76 0.98,3.23 1.97,4.8 1.89,2.99 5.27,5 9.16,5 5.96,0 10.78,-4.69 10.78,-10.47 0,-3.82 -2.12,-7.13 -5.29,-8.95 -1.51,-0.87 -3.08,-1.22 -4.74,-1.69z"/>
  <g id="_2208026720592">
   <polygon class="fil3" points="-729.08,559.56 -712.83,559.56 -712.83,510.92 -729.08,510.92 "/>
   <polygon class="fil3" points="-703.59,559.56 -687.34,559.56 -687.34,530.67 -703.59,530.67 "/>
   <polygon class="fil3" points="-678.12,559.56 -661.95,559.56 -661.95,483.05 -678.12,483.05 "/>
  </g>
 </g>
</svg>
