<?xml version="1.0" encoding="UTF-8"?>
<!DOCTYPE svg PUBLIC "-//W3C//DTD SVG 1.1//EN" "http://www.w3.org/Graphics/SVG/1.1/DTD/svg11.dtd">
<!-- Creator: CorelDRAW 2018 (64-Bit) -->
<svg xmlns="http://www.w3.org/2000/svg" xml:space="preserve" width="100px" height="100px" version="1.1" style="shape-rendering:geometricPrecision; text-rendering:geometricPrecision; image-rendering:optimizeQuality; fill-rule:evenodd; clip-rule:evenodd"
viewBox="0 0 100 100"
 xmlns:xlink="http://www.w3.org/1999/xlink">
 <defs>
  <style type="text/css">
   <![CDATA[
    .fil0 {fill:none}
    .fil1 {fill:#282826}
   ]]>
  </style>
 </defs>
 <g id="Layer_x0020_1">
  <metadata id="CorelCorpID_0Corel-Layer"/>
  <rect class="fil0" x="-0.09" y="0.06" width="100" height="100"/>
  <g id="_2208180798480">
   <path class="fil1" d="M50.34 72.62c12.43,0.03 22.59,-10.14 22.57,-22.57 -0.02,-12.45 -10.11,-22.52 -22.56,-22.54 -12.41,-0.03 -22.53,10.09 -22.57,22.54 -0.03,12.41 10.11,22.57 22.56,22.57zm3.42 -60.72c0.11,1.01 0.23,2.02 0.35,3 0.17,1.46 0.34,2.91 0.51,4.36l0.19 0.2c2.38,0.34 4.69,0.96 6.93,1.87l0.33 -0.1c1.43,-1.94 2.88,-3.86 4.32,-5.81 0,0 5.93,3.42 5.93,3.42 -0.95,2.22 -1.9,4.46 -2.87,6.67l0.08 0.32c1.89,1.48 3.57,3.18 5.06,5.05l0.31 0.07c2.17,-0.93 4.34,-1.87 6.51,-2.8 0,0 3.55,5.88 3.55,5.88 -1.93,1.45 -3.86,2.88 -5.79,4.33l-0.1 0.27c0.9,2.24 1.52,4.55 1.87,6.94l0.22 0.22c0.51,0.05 1.02,0.13 1.52,0.18 1.7,0.19 3.39,0.39 5.09,0.61 0,0 0,6.98 0,6.98 -1.2,0.14 -2.4,0.28 -3.6,0.43 -1.01,0.12 -2.02,0.25 -3.03,0.34l-0.2 0.2c-0.34,2.39 -0.96,4.7 -1.85,6.94l0.09 0.32c1.89,1.4 3.77,2.81 5.65,4.21 0,0 -3.26,6.03 -3.26,6.03 -2.22,-0.94 -4.44,-1.89 -6.65,-2.85l-0.35 0.09c-1.18,1.5 -2.49,2.86 -3.93,4.11 -0.41,0.37 -0.83,0.69 -1.26,1.06 1.01,2.34 2.02,4.7 3.03,7.04 0,0 -6.02,3.22 -6.02,3.22 -1.44,-1.94 -2.89,-3.86 -4.32,-5.8l-0.31 -0.1c-1.66,0.66 -3.35,1.18 -5.1,1.53 -0.67,0.14 -1.33,0.24 -2.01,0.36l-0.03 0.2c-0.29,2.44 -0.57,4.85 -0.86,7.26 0,0 -6.82,0.08 -6.82,0.08 -0.17,-1.43 -0.34,-2.88 -0.51,-4.31 -0.12,-1.04 -0.24,-2.05 -0.36,-3.05l-0.18 -0.2c-2.39,-0.34 -4.7,-0.96 -6.94,-1.87l-0.32 0.1c-1.4,1.89 -2.82,3.79 -4.23,5.66 0,0 -6.03,-3.27 -6.03,-3.27 0.96,-2.22 1.91,-4.46 2.87,-6.68l-0.08 -0.31c-1.52,-1.19 -2.9,-2.52 -4.16,-3.97 -0.35,-0.39 -0.68,-0.81 -1.03,-1.23l-0.18 0.08c-2.23,0.96 -4.46,1.91 -6.69,2.87 0,0 -3.4,-5.93 -3.4,-5.93 1.93,-1.45 3.87,-2.88 5.8,-4.33l0.1 -0.34c-0.68,-1.7 -1.2,-3.45 -1.56,-5.27 -0.12,-0.59 -0.22,-1.21 -0.33,-1.82l-0.52 -0.05c-2.32,-0.3 -4.63,-0.57 -6.94,-0.84 0,0 -0.19,-5.81 -0.19,-6.79 2.56,-0.32 5.11,-0.62 7.64,-0.91l0.03 -0.08c0.34,-2.41 0.97,-4.77 1.88,-7.06l-0.08 -0.27c-1.33,-0.98 -2.66,-1.97 -3.98,-2.98 -0.67,-0.49 -1.35,-0.98 -2.02,-1.5 0,0 2.56,-4.16 3.59,-5.81 2.22,0.99 4.46,1.92 6.68,2.91l0.31 -0.1c1.38,-1.75 2.95,-3.35 4.7,-4.78l0.5 -0.39 -0.08 -0.2c-0.95,-2.24 -1.9,-4.45 -2.87,-6.67 0,0 5.79,-3.59 5.79,-3.59l0.16 0.2c1.44,1.92 2.88,3.86 4.32,5.78l0.31 0.1c1.71,-0.69 3.48,-1.21 5.29,-1.58 0.6,-0.12 1.2,-0.22 1.81,-0.32l0.04 -0.19c0.28,-2.44 0.57,-4.85 0.85,-7.26 0,0 6.83,-0.08 6.83,-0.08z"/>
   <path class="fil1" d="M32.21 50.05c-0.01,10.02 8.09,18.12 18.12,18.14 10,0.03 18.14,-8.1 18.15,-18.11 0.01,-10.02 -8.08,-18.12 -18.11,-18.14 -10.01,-0.03 -18.14,8.07 -18.16,18.11zm18.14 -21.07c11.61,0 21.06,9.45 21.08,21.07 0,11.62 -9.48,21.09 -21.08,21.09 -11.63,0 -21.11,-9.5 -21.08,-21.09 0.04,-11.64 9.48,-21.07 21.08,-21.07z"/>
  </g>
 </g>
</svg>
