<?xml version="1.0" encoding="UTF-8"?>
<!DOCTYPE svg PUBLIC "-//W3C//DTD SVG 1.1//EN" "http://www.w3.org/Graphics/SVG/1.1/DTD/svg11.dtd">
<!-- Creator: CorelDRAW 2018 (64-Bit) -->
<svg xmlns="http://www.w3.org/2000/svg" xml:space="preserve" width="100px" height="100px" version="1.1" style="shape-rendering:geometricPrecision; text-rendering:geometricPrecision; image-rendering:optimizeQuality; fill-rule:evenodd; clip-rule:evenodd"
viewBox="0 0 100 100"
 xmlns:xlink="http://www.w3.org/1999/xlink">
 <defs>
  <style type="text/css">
   <![CDATA[
    .fil0 {fill:none}
    .fil1 {fill:#282826;fill-rule:nonzero}
   ]]>
  </style>
 </defs>
 <g id="Layer_x0020_1">
  <metadata id="CorelCorpID_0Corel-Layer"/>
  <rect class="fil0" x="-0.09" y="0.06" width="100" height="100"/>
  <path class="fil1" d="M50.07 11.64l0 -0.01c-0.05,0 -0.1,0.01 -0.16,0.01 -0.04,0 -0.09,-0.01 -0.15,-0.01l0 0.01c-25.48,0.22 -46.07,20.3 -46.07,45.05 0,12.42 5.19,23.66 13.56,31.81l9.9 -9.77c-5.77,-5.67 -9.34,-13.45 -9.34,-22.04 0,-17.24 14.35,-31.23 32.1,-31.37 17.76,0.14 32.11,14.13 32.11,31.37 0,8.59 -3.56,16.37 -9.34,22.04l9.9 9.77c8.38,-8.15 13.56,-19.39 13.56,-31.81 0,-24.75 -20.59,-44.83 -46.07,-45.05zm0.86 34.41l-16.72 -4.74 4.84 16.04c0.53,1.76 0.98,3.23 1.97,4.81 1.89,2.99 5.27,5 9.16,5 5.96,0 10.78,-4.69 10.78,-10.47 0,-3.82 -2.12,-7.14 -5.29,-8.95 -1.51,-0.87 -3.08,-1.22 -4.74,-1.69z"/>
 </g>
</svg>
