<?xml version="1.0" encoding="UTF-8"?>
<!DOCTYPE svg PUBLIC "-//W3C//DTD SVG 1.1//EN" "http://www.w3.org/Graphics/SVG/1.1/DTD/svg11.dtd">
<!-- Creator: CorelDRAW 2018 (64-Bit) -->
<svg xmlns="http://www.w3.org/2000/svg" xml:space="preserve" width="100px" height="100px" version="1.1" style="shape-rendering:geometricPrecision; text-rendering:geometricPrecision; image-rendering:optimizeQuality; fill-rule:evenodd; clip-rule:evenodd"
viewBox="0 0 100 100"
 xmlns:xlink="http://www.w3.org/1999/xlink">
 <defs>
  <style type="text/css">
   <![CDATA[
    .fil1 {fill:none}
    .fil0 {fill:#612D87;fill-rule:nonzero}
   ]]>
  </style>
 </defs>
 <g id="Layer_x0020_1">
  <metadata id="CorelCorpID_0Corel-Layer"/>
  <g id="_2208177437344">
   <polygon class="fil0" points="6.46,29.58 24.1,29.58 24.1,12.08 6.46,12.08 "/>
   <polygon class="fil0" points="41.1,29.58 58.73,29.58 58.73,12.08 41.1,12.08 "/>
   <polygon class="fil0" points="75.73,29.58 93.3,29.58 93.3,12.08 75.73,12.08 "/>
   <polygon class="fil0" points="6.46,58.82 24.1,58.82 24.1,41.31 6.46,41.31 "/>
   <polygon class="fil0" points="41.1,58.82 58.73,58.82 58.73,41.31 41.1,41.31 "/>
   <polygon class="fil0" points="75.73,58.82 93.3,58.82 93.3,41.31 75.73,41.31 "/>
   <polygon class="fil0" points="6.46,88.05 24.1,88.05 24.1,70.54 6.46,70.54 "/>
   <polygon class="fil0" points="41.1,88.05 58.73,88.05 58.73,70.54 41.1,70.54 "/>
   <polygon class="fil0" points="75.73,88.05 93.3,88.05 93.3,70.54 75.73,70.54 "/>
  </g>
  <rect class="fil1" x="-0.09" y="0.06" width="100" height="100"/>
 </g>
</svg>
