<?xml version="1.0" encoding="UTF-8"?>
<!DOCTYPE svg PUBLIC "-//W3C//DTD SVG 1.1//EN" "http://www.w3.org/Graphics/SVG/1.1/DTD/svg11.dtd">
<!-- Creator: CorelDRAW 2018 (64-Bit) -->
<svg xmlns="http://www.w3.org/2000/svg" xml:space="preserve" width="100px" height="100px" version="1.1" style="shape-rendering:geometricPrecision; text-rendering:geometricPrecision; image-rendering:optimizeQuality; fill-rule:evenodd; clip-rule:evenodd"
viewBox="0 0 100 100"
 xmlns:xlink="http://www.w3.org/1999/xlink">
 <defs>
  <style type="text/css">
   <![CDATA[
    .fil0 {fill:none}
    .fil1 {fill:#282826;fill-rule:nonzero}
   ]]>
  </style>
 </defs>
 <g id="Layer_x0020_1">
  <metadata id="CorelCorpID_0Corel-Layer"/>
  <rect class="fil0" x="-0.09" y="0.06" width="100" height="100"/>
  <g id="_2208174934160">
   <path class="fil1" d="M85.7 37.43l-15.64 0 0 -10.65 15.64 0 0 10.65zm2.66 50.68l0 -76.09 -76.89 0 0 76.09 76.89 0zm-2.66 -38.68l-15.64 0 0 -9.31 15.64 0 0 9.31zm0 12l-15.64 0 0 -9.31 15.64 0 0 9.31zm0 12l-15.64 0 0 -9.32 15.64 0 0 9.32zm0 12l-15.64 0 0 -9.32 15.64 0 0 9.32zm-18.36 -48l-16.04 0 0 -10.65 16.04 0 0 10.65zm0 12l-16.04 0 0 -9.31 16.04 0 0 9.31zm0 36l-16.04 0 0 -33.31 16.04 0 0 33.31zm-18.76 -48l-16.04 0 0 -10.65 16.04 0 0 10.65zm0 2.73l0 21.27 -16.04 0 0 -21.31 16.04 0 0 0.04zm0 33.27l-16.04 0 0 -9.32 16.04 0 0 9.32zm0 12l-16.04 0 0 -9.32 16.04 0 0 9.32zm-18.76 -48l-15.64 0 0 -10.65 15.64 0 0 10.65zm0 12l-15.64 0 0 -9.31 15.64 0 0 9.31zm0 12l-15.64 0 0 -9.31 15.64 0 0 9.31zm0 12l-15.64 0 0 -9.32 15.64 0 0 9.32zm0 12l-15.64 0 0 -9.32 15.64 0 0 9.32z"/>
   <polygon class="fil1" points="55.77,80.88 62.87,80.88 62.87,56.67 55.77,56.67 "/>
  </g>
 </g>
</svg>
