<?xml version="1.0" encoding="UTF-8"?>
<!DOCTYPE svg PUBLIC "-//W3C//DTD SVG 1.1//EN" "http://www.w3.org/Graphics/SVG/1.1/DTD/svg11.dtd">
<!-- Creator: CorelDRAW 2018 (64-Bit) -->
<svg xmlns="http://www.w3.org/2000/svg" xml:space="preserve" width="30px" height="30px" version="1.1" style="shape-rendering:geometricPrecision; text-rendering:geometricPrecision; image-rendering:optimizeQuality; fill-rule:evenodd; clip-rule:evenodd"
viewBox="0 0 30 30"
 xmlns:xlink="http://www.w3.org/1999/xlink">
 <defs>
  <style type="text/css">
   <![CDATA[
    .fil0 {fill:none}
    .fil1 {fill:#FEFEFE}
   ]]>
  </style>
 </defs>
 <g id="Layer_x0020_1">
  <metadata id="CorelCorpID_0Corel-Layer"/>
  <polygon class="fil0" points="0.02,0.01 30.02,0.01 30.02,30.02 0.02,30.02 "/>
  <path class="fil1" d="M25.53 13.37c0.15,-0.15 0.24,-0.37 0.24,-0.58 0,-0.41 -0.3,-0.75 -0.7,-0.81l-6.01 -0.88c-0.27,-0.03 -0.5,-0.2 -0.62,-0.44l-2.69 -5.45c-0.13,-0.28 -0.42,-0.46 -0.73,-0.46 -0.31,0 -0.59,0.18 -0.73,0.46l-2.69 5.45c-0.12,0.24 -0.35,0.4 -0.61,0.44l-6.02 0.88c-0.4,0.06 -0.7,0.4 -0.7,0.81 0,0.21 0.09,0.43 0.25,0.58l4.35 4.24c0.16,0.16 0.25,0.37 0.25,0.59 0,0.04 -0.01,0.09 -0.02,0.13l-1.02 6c-0.01,0.04 -0.01,0.09 -0.01,0.13 0,0.45 0.36,0.82 0.81,0.82 0.13,0 0.26,-0.03 0.38,-0.09l5.39 -2.83c0.11,-0.06 0.24,-0.1 0.37,-0.1 0.14,0 0.27,0.04 0.38,0.1l5.39 2.83c0.11,0.06 0.25,0.09 0.38,0.09 0.45,0 0.81,-0.37 0.81,-0.82 0,-0.04 0,-0.09 -0.01,-0.13l-1.03 -6c-0.01,-0.04 -0.01,-0.09 -0.01,-0.13 0,-0.22 0.09,-0.43 0.24,-0.59l4.36 -4.24z"/>
 </g>
</svg>
