<?xml version="1.0" encoding="UTF-8"?>
<!DOCTYPE svg PUBLIC "-//W3C//DTD SVG 1.1//EN" "http://www.w3.org/Graphics/SVG/1.1/DTD/svg11.dtd">
<!-- Creator: CorelDRAW 2018 (64-Bit) -->
<svg xmlns="http://www.w3.org/2000/svg" xml:space="preserve" width="30px" height="30px" version="1.1" style="shape-rendering:geometricPrecision; text-rendering:geometricPrecision; image-rendering:optimizeQuality; fill-rule:evenodd; clip-rule:evenodd"
viewBox="0 0 30 30"
 xmlns:xlink="http://www.w3.org/1999/xlink">
 <defs>
  <style type="text/css">
   <![CDATA[
    .fil1 {fill:none}
    .fil0 {fill:#FEFEFE}
   ]]>
  </style>
 </defs>
 <g id="Layer_x0020_1">
  <metadata id="CorelCorpID_0Corel-Layer"/>
  <path class="fil0" d="M26.29 4.57l-22.58 0c-1.33,0 -2.41,1.08 -2.41,2.41l0 16.05c0,1.32 1.08,2.41 2.41,2.41l22.58 0c1.32,0 2.4,-1.08 2.4,-2.41l0 -16.05c0,-1.32 -1.07,-2.41 -2.4,-2.41zm-0.34 1.61l-10.9 10.9 -11 -10.9 21.9 0zm-23.04 16.52l0 -15.4 7.73 7.67 -7.73 7.73zm1.13 1.13l7.74 -7.73 2.71 2.68c0.31,0.32 0.82,0.32 1.13,0l2.64 -2.64 7.69 7.69 -21.91 0zm23.05 -1.13l-7.69 -7.7 7.69 -7.69 0 15.39z"/>
  <polygon class="fil1" points="0,0 30,0 30,30.01 0,30.01 "/>
 </g>
</svg>
