<?xml version="1.0" encoding="UTF-8"?>
<!DOCTYPE svg PUBLIC "-//W3C//DTD SVG 1.1//EN" "http://www.w3.org/Graphics/SVG/1.1/DTD/svg11.dtd">
<!-- Creator: CorelDRAW 2018 (64-Bit) -->
<svg xmlns="http://www.w3.org/2000/svg" xml:space="preserve" width="25px" height="25px" version="1.1" style="shape-rendering:geometricPrecision; text-rendering:geometricPrecision; image-rendering:optimizeQuality; fill-rule:evenodd; clip-rule:evenodd"
viewBox="0 0 25 25"
 xmlns:xlink="http://www.w3.org/1999/xlink">
 <defs>
  <style type="text/css">
   <![CDATA[
    .fil0 {fill:none}
    .fil1 {fill:#6B6B6B}
   ]]>
  </style>
 </defs>
 <g id="Layer_x0020_1">
  <metadata id="CorelCorpID_0Corel-Layer"/>
  <rect class="fil0" x="-0.05" y="0.03" width="25" height="25"/>
  <path class="fil1" d="M21.23 20.24l-4.47 -4.65c1.15,-1.36 1.78,-3.08 1.78,-4.87 0,-4.17 -3.4,-7.57 -7.57,-7.57 -4.18,0 -7.58,3.4 -7.58,7.57 0,4.18 3.4,7.58 7.58,7.58 1.56,0 3.06,-0.48 4.34,-1.37l4.49 4.68c0.19,0.19 0.44,0.3 0.72,0.3 0.25,0 0.49,-0.1 0.68,-0.28 0.39,-0.38 0.4,-1 0.03,-1.39zm-10.26 -15.11c3.08,0 5.59,2.51 5.59,5.59 0,3.09 -2.51,5.6 -5.59,5.6 -3.09,0 -5.6,-2.51 -5.6,-5.6 0,-3.08 2.51,-5.59 5.6,-5.59z"/>
 </g>
</svg>
