<svg xmlns="http://www.w3.org/2000/svg" width="43.6" height="63.4" fill="transparent" xmlns:v="https://vecta.io/nano"><style><![CDATA[.B{fill-rule:evenodd}]]></style><defs><clipPath id="A"><path d="M63.533 372.4h43.6v63.4h-43.6z"/></clipPath><linearGradient id="B" gradientUnits="userSpaceOnUse" x1=".467" y1="-1.4" x2=".467" y2="30.6"><stop stop-color="#963" offset="0"/><stop stop-color="#c96" offset=".5"/><stop stop-color="#963" offset="1"/></linearGradient><clipPath id="C"><path d="M-2-2h43.6v41.082H-2z"/></clipPath><clipPath id="D"><path d="M18.574 11.097H41.6v29.018H18.574z"/></clipPath><linearGradient id="E" gradientUnits="userSpaceOnUse" x1="9.467" y1="5.6" x2="9.467" y2="32.6"><stop stop-color="#faebd7" offset="0"/><stop stop-color="#deb887" offset="1"/></linearGradient><clipPath id="F"><path d="M1.822-2H38.48v42.459H1.822z"/></clipPath><clipPath id="G"><path d="M6.608 22.408H33.17v27.43H6.608z"/></clipPath><clipPath id="H"><path d="M-2 22.832h43.6V61.4H-2z"/></clipPath><clipPath id="I"><path d="M10.033 32.095h23.65V61.4h-23.65z"/></clipPath></defs><g transform="translate(2 2)" class="B"><g clip-path="url(#C)"><path d="M9.467 5.6c3-7 16-7 24-2 3 2-2 4-4 6-3-4-11 1-12 1-4 0-4 0-5 4-3-2-2 6 1 7 0 4 2 7 4 9h-3c-14 0-7-22-5-25" fill="url(#B)"/></g><g clip-path="url(#D)"><path d="M26.467 29.6c2-2 4-6 4-11 2 3 4 11-2 14 0-2-1-3-2-3" fill="#963"/></g><g clip-path="url(#F)"><path d="M12.467 14.6c1-4 1-4 5-4 1 0 9-5 12-1 1 3 1 6 1 9 0 5-2 9-4 11 0 0-1 1-2 1-1 1-3 2-7 0-2-2-4-5-4-9-3-1-4-9-1-7" fill="url(#E)"/></g><g clip-path="url(#G)"><path d="M14.467 30.6h3c4 2 6 1 7 0v1c0 1 0 6 1 8-2 2-6 1-7 1-1-1-4-6-4-10" fill="#deb887"/></g><g clip-path="url(#H)"><path d="M23.467 58.6c2-4 2-14 2-19-1-2-1-7-1-8 13 3 16 12 15 21-13 11-40 7-39-2-1-9 3-17 14-20 0 4 3 9 4 10 1 3 5 11 5 18" fill="#789"/></g><g clip-path="url(#I)"><path d="M18.467 40.6c1 0 5 1 7-1 0 5 0 15-2 19 0-7-4-15-5-18" fill="#fff"/></g></g></svg>