<svg xmlns="http://www.w3.org/2000/svg" width="43.6" height="63.4" fill="transparent" xmlns:v="https://vecta.io/nano"><style><![CDATA[.B{fill-rule:evenodd}]]></style><defs><clipPath id="A"><path d="M83.533 282.4h43.6v63.4h-43.6z"/></clipPath><linearGradient id="B" gradientUnits="userSpaceOnUse" x1="3.467" y1="-1.4" x2="3.467" y2="22.6"><stop stop-color="#3c3c3c" offset="0"/><stop stop-color="#787878" offset=".5"/><stop stop-color="#3c3c3c" offset="1"/></linearGradient><clipPath id="C"><path d="M-2-2h39.022v32.2H-2z"/></clipPath><linearGradient id="D" gradientUnits="userSpaceOnUse" x1="2.467" y1="6.6" x2="2.467" y2="32.6"><stop stop-color="#faebd7" offset="0"/><stop stop-color="#deb887" offset="1"/></linearGradient><clipPath id="E"><path d="M-2-1.243h36.732v41.93H-2z"/></clipPath><clipPath id="F"><path d="M2.92 14.2h28.977v36.629H2.92z"/></clipPath><clipPath id="G"><path d="M-2 21.46h43.6V61.4H-2z"/></clipPath><clipPath id="H"><path d="M.52 21.46h31.376V61.4H.52z"/></clipPath></defs><g transform="translate(2 2)" class="B"><g clip-path="url(#C)"><path d="M3.467 4.6c5-5 18-6 22-2 4 5 3 19-3 20 4-6 2-9-2-6 1-8-2-9-7-9-4 0-7 0-9-1-1 0-1-1-1-2" fill="url(#B)"/></g><g clip-path="url(#E)"><path d="M4.467 6.6c2 1 5 1 9 1 5 0 8 1 7 9 4-3 6 0 2 6-1 5-6 10-11 10-7-1-8-8-9-12 0-5 0-11 2-14" fill="url(#D)"/></g><g clip-path="url(#F)"><path d="M11.467 32.6c5 0 10-5 11-10l1 7c-1 5-7 13-13 7l1-4" fill="#deb887"/></g><g clip-path="url(#G)"><path d="M23.467 29.6c3 0 8 5 11 6 4 3 5 9 5 19-3 7-31 7-39-5-1-7 2-16 11-17l-1 4c-2 5-1 18 1 21 3-16 10-21 12-28" fill="#696969"/></g><g clip-path="url(#H)"><path d="M10.467 36.6c6 6 12-2 13-7-2 7-9 12-12 28-2-3-3-16-1-21" fill="#fff"/></g></g></svg>