<?xml version="1.0" encoding="UTF-8"?>
<!DOCTYPE svg PUBLIC "-//W3C//DTD SVG 1.1//EN" "http://www.w3.org/Graphics/SVG/1.1/DTD/svg11.dtd">
<!-- Creator: CorelDRAW 2018 (64-Bit) -->
<svg xmlns="http://www.w3.org/2000/svg" xml:space="preserve" width="150px" height="38px" version="1.1" style="shape-rendering:geometricPrecision; text-rendering:geometricPrecision; image-rendering:optimizeQuality; fill-rule:evenodd; clip-rule:evenodd"
viewBox="0 0 150 38"
 xmlns:xlink="http://www.w3.org/1999/xlink">
 <defs>
  <style type="text/css">
   <![CDATA[
    .fil0 {fill:none}
    .fil1 {fill:#282826}
    .fil3 {fill:#282826;fill-rule:nonzero}
    .fil2 {fill:#282826;fill-rule:nonzero}
   ]]>
  </style>
 </defs>
 <g id="Layer_x0020_1">
  <metadata id="CorelCorpID_0Corel-Layer"/>
  <rect class="fil0" x="0.01" width="149.82" height="37.64"/>
  <path class="fil1" d="M35.31 17.69c0,0 0,0 0,0 -1.45,0 -2.62,1.18 -2.62,2.62 0,0.17 0.02,0.34 0.05,0.51 0.21,1.04 1.02,1.85 2.05,2.06 0.17,0.03 0.34,0.05 0.52,0.05 1.44,0 2.61,-1.17 2.61,-2.62 0,0 0,0 0,0l0 -2.44c0,-0.1 -0.08,-0.18 -0.18,-0.18l-2.43 0z"/>
  <path class="fil1" d="M52.65 13.5c-0.6,3.75 -2.51,7.18 -5.39,9.65 -2.89,2.48 -6.56,3.86 -10.36,3.88 -0.77,0.03 -1.54,-0.01 -2.3,-0.14 -3.28,-0.55 -5.73,-3.33 -5.87,-6.65 0.01,-1.8 0.74,-3.52 2.01,-4.79 1.28,-1.28 3.02,-2 4.84,-2 1.78,0 3.49,0.69 4.77,1.93 1.29,1.25 2.04,2.97 2.08,4.76 0.03,1.14 -0.46,2.14 -1.47,2.17 -1.08,0 -1.59,-0.78 -1.59,-1.82l0 -2.88c0,0 0,0 0,0 0,-0.98 -0.79,-1.76 -1.76,-1.77l-2.42 0c-0.01,0 -0.02,0 -0.03,0 -1.42,0 -2.74,0.71 -3.52,1.9 -0.45,0.69 -0.69,1.49 -0.69,2.31 0,2.07 1.51,3.84 3.56,4.16 0.22,0.04 0.44,0.05 0.65,0.05 1.2,0 2.35,-0.51 3.15,-1.4l0.08 -0.13 0.09 0.14c0.56,0.77 1.45,1.22 2.4,1.22 0.04,0 0.09,0 0.14,-0.01 1.75,-0.12 3.11,-1.59 3.11,-3.35 0,-0.05 0,-0.11 0,-0.16 0,-0.03 0,-0.07 0,-0.1 0,-0.72 -0.09,-1.43 -0.25,-2.13 -0.45,-2.07 -1.65,-3.89 -3.36,-5.12 -1.46,-1.05 -3.2,-1.61 -5,-1.61 -2.43,0 -4.75,1.04 -6.37,2.85 -1.4,1.57 -2.18,3.6 -2.18,5.7 0,0.01 0,0.02 0,0.03 0.03,2.24 0.92,4.38 2.5,5.98 1.57,1.59 3.7,2.52 5.94,2.57 2.24,0.06 0.63,0.06 1.35,0.04 3.47,-0.02 6.87,-1.03 9.78,-2.92 0.05,-0.03 0.09,0.03 0.06,0.07 -2.72,2.93 -6.53,4.6 -10.53,4.6 -0.22,0 -0.44,-0.01 -0.66,-0.02 -0.06,0 -0.12,0 -0.18,0 -2.69,0 -5.28,-1.07 -7.17,-2.98 -1.88,-1.89 -2.93,-4.45 -2.93,-7.12 0,-0.08 0,-0.18 0,-0.26 0,-3.29 1.56,-6.4 4.2,-8.37 1.75,-1.29 3.87,-1.99 6.04,-1.99l3.25 0c2.56,0 5.01,-1.09 6.74,-2.98 0.02,-0.02 0.04,-0.03 0.07,-0.04 0.01,0 0.02,0 0.03,0 0.04,0 0.08,0.02 0.11,0.06 0.01,0.02 0.02,0.05 0.01,0.08 -0.13,1.46 -0.62,2.86 -1.41,4.1 -0.01,0.02 -0.02,0.04 -0.02,0.06 0,0.03 0.01,0.05 0.03,0.08 0.02,0.03 0.06,0.04 0.1,0.04 0.01,0 0.02,0 0.03,0 3.04,-0.69 5.57,-2.78 6.82,-5.63 0.02,-0.03 0.04,-0.05 0.07,-0.06 0.02,-0.02 0.05,-0.02 0.08,-0.02 0.03,0 0.06,0 0.09,0.02 0.02,0.01 0.04,0.03 0.06,0.06 0.93,1.78 1.41,3.76 1.41,5.76 0,0.73 -0.06,1.46 -0.19,2.18l0 0z"/>
  <path class="fil2" d="M61.15 9.77l7 0c1.39,0 2.42,0.05 3.1,0.17 0.69,0.11 1.29,0.35 1.83,0.72 0.54,0.36 0.99,0.85 1.34,1.46 0.36,0.6 0.54,1.29 0.54,2.04 0,0.82 -0.22,1.57 -0.66,2.25 -0.44,0.69 -1.04,1.19 -1.79,1.54 1.06,0.31 1.88,0.84 2.45,1.59 0.57,0.75 0.86,1.63 0.86,2.64 0,0.8 -0.18,1.58 -0.56,2.33 -0.37,0.75 -0.87,1.36 -1.52,1.81 -0.63,0.45 -1.42,0.72 -2.37,0.83 -0.58,0.06 -2.01,0.1 -4.26,0.12l-5.96 0 0 -17.5zm3.55 2.9l0 4.04 2.31 0c1.37,0 2.23,-0.02 2.56,-0.06 0.61,-0.07 1.08,-0.28 1.43,-0.63 0.35,-0.34 0.52,-0.8 0.52,-1.36 0,-0.54 -0.15,-0.98 -0.45,-1.31 -0.3,-0.34 -0.74,-0.55 -1.33,-0.61 -0.35,-0.05 -1.36,-0.07 -3.01,-0.07l-2.03 0zm0 6.95l0 4.69 3.27 0c1.27,0 2.08,-0.04 2.43,-0.11 0.52,-0.09 0.95,-0.32 1.28,-0.7 0.33,-0.37 0.5,-0.86 0.5,-1.49 0,-0.53 -0.13,-0.97 -0.39,-1.34 -0.25,-0.36 -0.62,-0.63 -1.1,-0.8 -0.48,-0.17 -1.53,-0.25 -3.14,-0.25l-2.85 0zm14.08 7.65l0 -17.5 3.35 0 0 17.5 -3.35 0zm9.29 -8.78l-3.04 -0.54c0.35,-1.23 0.94,-2.15 1.77,-2.75 0.84,-0.59 2.08,-0.89 3.73,-0.89 1.49,0 2.61,0.18 3.34,0.53 0.73,0.36 1.25,0.81 1.55,1.35 0.29,0.55 0.44,1.54 0.44,3l-0.05 3.92c0,1.11 0.06,1.93 0.16,2.46 0.11,0.53 0.31,1.09 0.6,1.7l-3.32 0c-0.09,-0.22 -0.2,-0.55 -0.32,-0.98 -0.06,-0.2 -0.1,-0.33 -0.12,-0.39 -0.57,0.56 -1.18,0.98 -1.84,1.26 -0.65,0.28 -1.34,0.43 -2.08,0.43 -1.3,0 -2.32,-0.36 -3.07,-1.07 -0.75,-0.7 -1.13,-1.6 -1.13,-2.68 0,-0.71 0.17,-1.36 0.52,-1.92 0.34,-0.55 0.81,-0.99 1.43,-1.28 0.62,-0.3 1.51,-0.56 2.67,-0.79 1.56,-0.29 2.65,-0.57 3.25,-0.82l0 -0.34c0,-0.65 -0.16,-1.11 -0.47,-1.39 -0.33,-0.28 -0.93,-0.42 -1.81,-0.42 -0.6,0 -1.07,0.12 -1.4,0.36 -0.34,0.23 -0.61,0.65 -0.81,1.25zm4.49 2.72c-0.42,0.14 -1.1,0.31 -2.04,0.51 -0.93,0.2 -1.54,0.39 -1.82,0.58 -0.44,0.32 -0.66,0.71 -0.66,1.18 0,0.48 0.18,0.88 0.53,1.22 0.35,0.34 0.79,0.51 1.33,0.51 0.61,0 1.18,-0.2 1.73,-0.59 0.41,-0.31 0.68,-0.67 0.8,-1.11 0.09,-0.29 0.13,-0.83 0.13,-1.64l0 -0.66zm6.22 6.06l0 -2.64 4.74 -5.44c0.79,-0.89 1.36,-1.52 1.74,-1.89 -0.4,0.02 -0.91,0.04 -1.54,0.04l-4.48 0.03 0 -2.79 10.49 0 0 2.37 -4.85 5.58 -1.7 1.85c0.93,-0.05 1.51,-0.07 1.73,-0.07l5.19 0 0 2.96 -11.32 0zm12.56 -6.5c0,-1.12 0.28,-2.2 0.83,-3.24 0.55,-1.05 1.32,-1.84 2.33,-2.39 1.01,-0.55 2.13,-0.83 3.37,-0.83 1.92,0 3.49,0.63 4.71,1.87 1.23,1.25 1.84,2.83 1.84,4.73 0,1.93 -0.62,3.52 -1.85,4.78 -1.24,1.26 -2.8,1.9 -4.68,1.9 -1.16,0 -2.27,-0.27 -3.32,-0.79 -1.05,-0.53 -1.85,-1.3 -2.4,-2.32 -0.55,-1.01 -0.83,-2.25 -0.83,-3.71zm3.45 0.18c0,1.26 0.3,2.22 0.89,2.89 0.6,0.67 1.33,1.01 2.21,1.01 0.87,0 1.61,-0.34 2.2,-1.01 0.59,-0.67 0.88,-1.64 0.88,-2.92 0,-1.24 -0.29,-2.2 -0.88,-2.86 -0.59,-0.68 -1.33,-1.01 -2.2,-1.01 -0.88,0 -1.61,0.33 -2.21,1.01 -0.59,0.66 -0.89,1.63 -0.89,2.89zm15.47 6.32l-3.35 0 0 -12.69 3.11 0 0 1.8c0.53,-0.85 1.01,-1.41 1.44,-1.67 0.43,-0.27 0.91,-0.4 1.45,-0.4 0.77,0 1.51,0.21 2.21,0.63l-1.03 2.93c-0.57,-0.37 -1.1,-0.55 -1.58,-0.55 -0.47,0 -0.87,0.13 -1.2,0.39 -0.32,0.26 -0.58,0.72 -0.77,1.4 -0.19,0.67 -0.28,2.09 -0.28,4.25l0 3.91z"/>
  <polygon class="fil3" points="14.71,36.45 15.65,36.45 15.65,1.07 14.71,1.07 "/>
 </g>
</svg>
