<?xml version="1.0" encoding="UTF-8"?>
<!DOCTYPE svg PUBLIC "-//W3C//DTD SVG 1.1//EN" "http://www.w3.org/Graphics/SVG/1.1/DTD/svg11.dtd">
<!-- Creator: CorelDRAW 2018 (64-Bit) -->
<svg xmlns="http://www.w3.org/2000/svg" xml:space="preserve" width="150px" height="38px" version="1.1" style="shape-rendering:geometricPrecision; text-rendering:geometricPrecision; image-rendering:optimizeQuality; fill-rule:evenodd; clip-rule:evenodd"
viewBox="0 0 150 38"
 xmlns:xlink="http://www.w3.org/1999/xlink">
 <defs>
  <style type="text/css">
   <![CDATA[
    .fil0 {fill:none}
    .fil1 {fill:#282826;fill-rule:nonzero}
   ]]>
  </style>
 </defs>
 <g id="Layer_x0020_1">
  <metadata id="CorelCorpID_0Corel-Layer"/>
  <rect class="fil0" x="0.01" width="149.82" height="37.64"/>
  <polygon class="fil1" points="24.62,19.05 34.3,19.05 34.3,9.29 24.62,9.29 "/>
  <polygon class="fil1" points="36.48,19.05 46.16,19.05 46.16,9.29 36.48,9.29 "/>
  <polygon class="fil1" points="24.62,30.81 34.3,30.81 34.3,21.05 24.62,21.05 "/>
  <polygon class="fil1" points="36.48,30.81 46.16,30.81 46.16,21.05 36.48,21.05 "/>
  <path class="fil1" d="M54.57 27.53l-3.11 -13.19 3.17 0 0.99 5.44c0.29,1.57 0.56,3.27 0.77,4.6l0.05 0c0.21,-1.43 0.52,-3.01 0.85,-4.64l1.11 -5.4 3.14 0 1.05 5.56c0.29,1.54 0.5,2.95 0.7,4.42l0.04 0c0.19,-1.47 0.48,-3.01 0.75,-4.58l1.07 -5.4 3.01 0 -3.38 13.19 -3.2 0 -1.11 -5.67c-0.25,-1.33 -0.46,-2.57 -0.62,-4.08l-0.04 0c-0.23,1.49 -0.44,2.75 -0.75,4.08l-1.25 5.67 -3.24 0z"/>
  <path class="fil1" d="M69.07 27.53l0 -9.57 2.95 0 0 9.57 -2.95 0zm3.05 -12.23c0,0.82 -0.62,1.48 -1.59,1.48 -0.93,0 -1.56,-0.66 -1.54,-1.48 -0.02,-0.87 0.61,-1.51 1.56,-1.51 0.95,0 1.55,0.64 1.57,1.51z"/>
  <path class="fil1" d="M74.39 21.01c0,-1.19 -0.04,-2.21 -0.08,-3.05l2.56 0 0.14 1.31 0.06 0c0.39,-0.61 1.36,-1.52 2.93,-1.52 1.94,0 3.4,1.29 3.4,4.11l0 5.67 -2.95 0 0 -5.3c0,-1.24 -0.43,-2.08 -1.5,-2.08 -0.81,0 -1.3,0.57 -1.49,1.12 -0.08,0.17 -0.12,0.47 -0.12,0.74l0 5.52 -2.95 0 0 -6.52z"/>
  <polygon class="fil1" points="85.86,14.34 93.86,14.34 93.86,16.78 88.83,16.78 88.83,19.8 93.53,19.8 93.53,22.23 88.83,22.23 88.83,27.53 85.86,27.53 "/>
  <path class="fil1" d="M97.99 22.74c0,1.64 0.68,2.87 1.94,2.87 1.15,0 1.89,-1.15 1.89,-2.87 0,-1.43 -0.55,-2.88 -1.89,-2.88 -1.41,0 -1.94,1.47 -1.94,2.88zm6.88 -0.1c0,3.5 -2.47,5.11 -5.01,5.11 -2.78,0 -4.91,-1.84 -4.91,-4.93 0,-3.1 2.02,-5.07 5.06,-5.07 2.91,0 4.86,2.01 4.86,4.89z"/>
  <path class="fil1" d="M106.69 21.11c0,-1.41 -0.04,-2.33 -0.08,-3.15l2.55 0 0.09 1.76 0.08 0c0.49,-1.39 1.65,-1.97 2.56,-1.97 0.27,0 0.41,0 0.62,0.03l0 2.8c-0.21,-0.04 -0.46,-0.08 -0.79,-0.08 -1.09,0 -1.83,0.59 -2.02,1.51 -0.04,0.2 -0.06,0.43 -0.06,0.67l0 4.85 -2.95 0 0 -6.42z"/>
  <path class="fil1" d="M114.07 21.01c0,-1.19 -0.04,-2.21 -0.08,-3.05l2.48 0 0.14 1.29 0.06 0c0.4,-0.6 1.24,-1.5 2.87,-1.5 1.22,0 2.19,0.62 2.6,1.62l0.04 0c0.35,-0.49 0.78,-0.88 1.23,-1.16 0.52,-0.31 1.1,-0.46 1.8,-0.46 1.82,0 3.2,1.29 3.2,4.14l0 5.64 -2.87 0 0 -5.2c0,-1.4 -0.45,-2.2 -1.4,-2.2 -0.68,0 -1.16,0.47 -1.36,1.04 -0.07,0.22 -0.11,0.53 -0.11,0.76l0 5.6 -2.88 0 0 -5.36c0,-1.21 -0.42,-2.04 -1.36,-2.04 -0.75,0 -1.2,0.59 -1.37,1.08 -0.1,0.23 -0.12,0.51 -0.12,0.74l0 5.58 -2.87 0 0 -6.52z"/>
  <path class="fil1" d="M130.74 24.93c0.54,0.33 1.67,0.72 2.54,0.72 0.9,0 1.27,-0.31 1.27,-0.8 0,-0.49 -0.3,-0.72 -1.4,-1.1 -1.96,-0.66 -2.72,-1.74 -2.7,-2.87 0,-1.78 1.51,-3.13 3.86,-3.13 1.11,0 2.1,0.25 2.68,0.54l-0.52 2.06c-0.43,-0.24 -1.25,-0.55 -2.06,-0.55 -0.72,0 -1.13,0.29 -1.13,0.78 0,0.45 0.37,0.69 1.54,1.1 1.8,0.63 2.56,1.55 2.58,2.96 0,1.78 -1.4,3.09 -4.12,3.09 -1.24,0 -2.35,-0.28 -3.06,-0.67l0.52 -2.13z"/>
  <polygon class="fil1" points="12.26,36.85 13.2,36.85 13.2,1.13 12.26,1.13 "/>
 </g>
</svg>
