<?xml version="1.0" encoding="UTF-8"?>
<!DOCTYPE svg PUBLIC "-//W3C//DTD SVG 1.1//EN" "http://www.w3.org/Graphics/SVG/1.1/DTD/svg11.dtd">
<!-- Creator: CorelDRAW 2018 (64-Bit) -->
<svg xmlns="http://www.w3.org/2000/svg" xml:space="preserve" width="150px" height="38px" version="1.1" style="shape-rendering:geometricPrecision; text-rendering:geometricPrecision; image-rendering:optimizeQuality; fill-rule:evenodd; clip-rule:evenodd"
viewBox="0 0 150 38"
 xmlns:xlink="http://www.w3.org/1999/xlink">
 <defs>
  <style type="text/css">
   <![CDATA[
    .fil0 {fill:none}
    .fil1 {fill:#282826;fill-rule:nonzero}
   ]]>
  </style>
 </defs>
 <g id="Layer_x0020_1">
  <metadata id="CorelCorpID_0Corel-Layer"/>
  <rect class="fil0" x="0.01" width="149.82" height="37.64"/>
  <path class="fil1" d="M40.01 18.02c0.1,0.17 0.18,0.28 0.24,0.4 1.05,1.88 2.09,3.76 3.12,5.65 0.17,0.32 0.37,0.46 0.73,0.43 0.47,-0.02 0.95,0 1.43,0 0.61,-0.01 0.69,-0.14 0.38,-0.69 -0.99,-1.8 -1.98,-3.61 -3,-5.4 -0.2,-0.35 -0.2,-0.61 0,-0.97 1,-1.76 1.97,-3.54 2.95,-5.32 0.38,-0.68 0.33,-0.77 -0.42,-0.77 -0.45,0 -0.9,0.02 -1.34,0 -0.36,-0.03 -0.56,0.1 -0.73,0.42 -0.64,1.2 -1.31,2.39 -1.97,3.58 -0.45,0.81 -0.9,1.61 -1.35,2.43 -0.18,-0.12 -0.22,-0.27 -0.29,-0.4 -1.03,-1.86 -2.07,-3.71 -3.08,-5.57 -0.19,-0.34 -0.41,-0.5 -0.8,-0.47 -0.46,0.04 -0.92,0.01 -1.39,0.01 -0.6,0.01 -0.67,0.12 -0.39,0.64 1,1.81 1.98,3.62 3,5.41 0.22,0.38 0.22,0.66 0,1.05 -1,1.76 -1.97,3.54 -2.95,5.32 -0.35,0.63 -0.29,0.73 0.44,0.73 0.45,0 0.9,-0.03 1.34,0 0.37,0.03 0.56,-0.12 0.73,-0.43 0.64,-1.2 1.31,-2.39 1.97,-3.58 0.45,-0.81 0.9,-1.61 1.38,-2.47zm-0.03 12.63c-1.93,0 -3.85,-0.01 -5.77,0 -0.97,0 -1.68,-0.42 -2.16,-1.26 -1.91,-3.37 -3.81,-6.74 -5.74,-10.09 -0.55,-0.94 -0.54,-1.82 0,-2.76 1.92,-3.34 3.82,-6.69 5.72,-10.05 0.5,-0.87 1.23,-1.29 2.23,-1.29 3.85,0.01 7.7,0.01 11.55,0 0.98,0 1.7,0.42 2.18,1.28 1.9,3.35 3.8,6.71 5.73,10.05 0.55,0.96 0.55,1.84 -0.01,2.8 -1.92,3.34 -3.82,6.69 -5.72,10.04 -0.49,0.87 -1.21,1.28 -2.19,1.28 -1.94,-0.01 -3.88,0 -5.82,0z"/>
  <path class="fil1" d="M87.33 17.89c0.65,-0.85 1.39,-1.48 2.41,-1.75 1.82,-0.49 3.57,0.27 4.19,1.74 0.15,0.35 0.25,0.12 0.36,-0.03 0.96,-1.42 2.33,-1.96 3.99,-1.84 1.57,0.12 2.66,1.14 3,2.81 0.11,0.57 0.17,1.14 0.17,1.71 0,2.19 0,4.38 0.01,6.57 0,0.34 -0.07,0.47 -0.43,0.45 -0.57,-0.03 -1.14,-0.03 -1.71,0 -0.36,0.02 -0.43,-0.12 -0.43,-0.46 0.02,-2.01 0.01,-4.03 0.01,-6.05 0,-0.53 -0.07,-1.05 -0.19,-1.56 -0.41,-1.63 -2.48,-1.72 -3.33,-0.87 -0.76,0.78 -1.01,1.72 -1.02,2.76 -0.01,1.91 -0.01,3.82 0.01,5.73 0,0.34 -0.08,0.47 -0.44,0.45 -0.5,-0.03 -1.01,-0.04 -1.52,0 -0.43,0.03 -0.57,-0.08 -0.57,-0.55 0.03,-2 0.01,-4.01 0.01,-6.01 0.01,-0.47 -0.05,-0.93 -0.17,-1.38 -0.22,-0.77 -0.66,-1.31 -1.49,-1.48 -0.9,-0.17 -1.65,0.07 -2.2,0.82 -0.47,0.63 -0.65,1.36 -0.66,2.14 0,1.99 -0.01,3.97 0.01,5.96 0,0.38 -0.08,0.53 -0.48,0.5 -0.55,-0.03 -1.11,-0.02 -1.66,0 -0.27,0 -0.39,-0.06 -0.38,-0.36 0,-3.53 0,-7.05 0,-10.58 0,-0.27 0.09,-0.34 0.34,-0.34 0.62,0.02 1.24,0.02 1.85,0 0.24,0 0.33,0.07 0.32,0.32 -0.01,0.43 0,0.86 0,1.3z"/>
  <path class="fil1" d="M73.29 27.54c-1,0 -1.92,-0.01 -2.84,0.01 -0.26,0 -0.34,-0.16 -0.43,-0.34 -0.8,-1.56 -1.6,-3.11 -2.41,-4.67 -0.07,-0.15 -0.16,-0.29 -0.28,-0.52 -0.36,0.67 -0.69,1.28 -1.02,1.9 -0.57,1.08 -1.15,2.16 -1.7,3.25 -0.15,0.29 -0.33,0.39 -0.65,0.38 -0.87,-0.02 -1.74,-0.01 -2.71,-0.01 0.44,-0.7 0.83,-1.34 1.23,-1.98 1.01,-1.62 2.02,-3.26 3.05,-4.88 0.15,-0.23 0.14,-0.39 0.01,-0.62 -1.2,-2.1 -2.38,-4.2 -3.57,-6.3 -0.07,-0.13 -0.14,-0.27 -0.25,-0.47 1.04,0 2.02,0.01 3,0 0.25,0 0.28,0.21 0.35,0.37 0.73,1.49 1.44,2.98 2.16,4.47 0.08,0.16 0.16,0.3 0.27,0.52 0.47,-0.88 0.91,-1.71 1.34,-2.54 0.44,-0.83 0.87,-1.67 1.31,-2.51 0.08,-0.17 0.16,-0.32 0.4,-0.31 0.86,0.01 1.72,0 2.58,0 0.07,0.17 -0.05,0.25 -0.11,0.35 -1.19,2.06 -2.38,4.13 -3.61,6.17 -0.24,0.41 -0.22,0.69 0.01,1.08 1.24,2.09 2.46,4.19 3.68,6.29 0.05,0.09 0.1,0.19 0.19,0.36z"/>
  <path class="fil1" d="M80.4 22.88c0,-0.2 0,-0.4 0,-0.6 0.01,-0.16 -0.06,-0.23 -0.22,-0.2 -1.01,0.18 -2.05,0.19 -3.04,0.48 -0.9,0.27 -1.33,1.07 -1.11,2 0.22,0.9 1.19,1.41 2.29,1.19 1.32,-0.27 2.08,-1.31 2.08,-2.87zm-0.01 3.19c-0.62,0.76 -1.31,1.35 -2.25,1.59 -1.03,0.27 -2.05,0.21 -3.01,-0.28 -1.16,-0.59 -1.79,-1.91 -1.62,-3.29 0.25,-1.98 1.37,-3.07 3.42,-3.33 1.05,-0.13 2.09,-0.31 3.15,-0.44 0.29,-0.03 0.34,-0.16 0.32,-0.41 -0.11,-1.27 -0.92,-1.97 -2.21,-1.92 -1.18,0.05 -2.27,0.36 -3.25,1.03 -0.26,0.17 -0.37,0.19 -0.36,-0.18 0.02,-0.44 0.04,-0.87 0,-1.3 -0.05,-0.44 0.12,-0.65 0.5,-0.8 1.5,-0.58 3.03,-0.92 4.64,-0.64 1.8,0.3 2.9,1.48 3.08,3.31 0.17,1.67 0.05,3.35 0.08,5.03 0.01,0.9 -0.01,1.79 0.01,2.7 0.01,0.33 -0.11,0.42 -0.42,0.41 -0.59,-0.02 -1.17,-0.02 -1.76,0 -0.23,0 -0.33,-0.07 -0.32,-0.32 0.01,-0.39 0,-0.77 0,-1.16z"/>
  <path class="fil1" d="M109.81 22.87c0,-0.78 0,-0.8 -0.79,-0.71 -0.81,0.1 -1.62,0.16 -2.41,0.38 -0.83,0.23 -1.21,0.75 -1.22,1.64 -0.01,0.75 0.44,1.3 1.24,1.53 0.36,0.1 0.73,0.1 1.09,0.04 1.18,-0.21 2.18,-1.28 2.09,-2.88zm-0.02 3.23c-0.21,0.04 -0.24,0.19 -0.32,0.29 -1.22,1.54 -3.73,1.87 -5.31,0.77 -1.75,-1.21 -1.68,-4.83 0.46,-5.86 0.98,-0.48 2.03,-0.57 3.08,-0.73 0.61,-0.09 1.21,-0.18 1.82,-0.25 0.22,-0.03 0.28,-0.12 0.28,-0.33 0.01,-1.11 -0.7,-1.89 -1.79,-1.96 -1.33,-0.1 -2.53,0.25 -3.64,0.97l-0.32 0.13 -0.06 -0.35c0,-0.49 0.01,-0.99 0,-1.49 -0.01,-0.21 0.07,-0.35 0.26,-0.43 1.66,-0.72 3.37,-1.12 5.17,-0.7 1.79,0.41 2.81,1.71 2.84,3.73 0.05,2.44 0.01,4.87 0.03,7.31 0,0.26 -0.08,0.35 -0.35,0.35 -0.6,-0.02 -1.2,-0.02 -1.8,0 -0.29,0.01 -0.37,-0.11 -0.35,-0.38 0.02,-0.35 0,-0.7 0,-1.07z"/>
  <path class="fil1" d="M129.08 18.04c0.4,-0.48 0.68,-0.89 1.07,-1.2 1.5,-1.2 4.01,-1.14 5.22,0.15 0.68,0.72 0.93,1.63 1.03,2.59 0.14,1.5 0.05,3 0.07,4.51 0.01,1.01 -0.02,2.01 0.01,3.02 0.01,0.37 -0.11,0.46 -0.45,0.44 -0.55,-0.03 -1.11,-0.03 -1.66,0 -0.39,0.03 -0.46,-0.13 -0.46,-0.48 0.02,-1.92 0.01,-3.85 0.01,-5.77 0,-0.44 -0.01,-0.87 -0.1,-1.3 -0.18,-0.87 -0.54,-1.61 -1.47,-1.83 -1,-0.24 -1.9,0.01 -2.58,0.84 -0.48,0.59 -0.68,1.28 -0.68,2.03 0,1.96 0,3.91 -0.01,5.87 0,0.72 0.08,0.63 -0.64,0.63 -0.51,0.01 -1.02,-0.01 -1.53,0.01 -0.27,0.01 -0.38,-0.07 -0.38,-0.37 0.01,-3.52 0.01,-7.04 0,-10.57 0,-0.26 0.1,-0.34 0.35,-0.34 0.62,0.02 1.24,0.02 1.85,0 0.29,-0.01 0.37,0.1 0.36,0.38 -0.02,0.41 -0.01,0.83 -0.01,1.39z"/>
  <path class="fil1" d="M120.69 18.72c-0.52,-0.26 -1.04,-0.38 -1.56,-0.35 -1.03,0.06 -1.64,0.7 -2.01,1.6 -0.2,0.49 -0.31,1.01 -0.31,1.55 0,1.86 -0.01,3.72 0,5.58 0,0.35 -0.08,0.47 -0.44,0.45 -0.52,-0.03 -1.04,-0.03 -1.57,0 -0.4,0.03 -0.52,-0.09 -0.52,-0.51 0.03,-1.91 0.01,-3.82 0.01,-5.73 0,-1.52 0.02,-3.04 -0.01,-4.56 0,-0.4 0.13,-0.5 0.5,-0.48 0.57,0.03 1.14,0.02 1.71,0 0.24,0 0.32,0.08 0.32,0.32 -0.02,0.58 -0.01,1.15 -0.01,1.85 0.18,-0.35 0.29,-0.61 0.43,-0.85 0.64,-1.18 1.8,-1.73 3.1,-1.47 0.18,0.03 0.37,0.05 0.37,0.32 -0.01,0.74 -0.01,1.48 -0.01,2.28z"/>
  <path class="fil1" d="M121.91 21.87c0,-1.69 0.01,-3.38 -0.01,-5.07 -0.01,-0.45 0.13,-0.56 0.54,-0.53 0.52,0.03 1.05,0.03 1.57,0 0.33,-0.02 0.45,0.07 0.45,0.43 -0.01,3.48 -0.01,6.96 0,10.44 0,0.28 -0.05,0.42 -0.38,0.41 -0.6,-0.03 -1.2,-0.02 -1.8,0 -0.33,0.01 -0.38,-0.13 -0.38,-0.41 0.01,-1.76 0.01,-3.51 0.01,-5.27z"/>
  <path class="fil1" d="M123.2 13.76c-0.86,-0.01 -1.52,-0.65 -1.53,-1.47 -0.01,-0.83 0.7,-1.51 1.55,-1.5 0.87,0.02 1.55,0.7 1.53,1.53 -0.02,0.82 -0.69,1.44 -1.55,1.44z"/>
  <polygon class="fil1" points="13.16,36.85 14,36.85 14,1.13 13.16,1.13 "/>
 </g>
</svg>
