<?xml version="1.0" encoding="UTF-8"?>
<!DOCTYPE svg PUBLIC "-//W3C//DTD SVG 1.1//EN" "http://www.w3.org/Graphics/SVG/1.1/DTD/svg11.dtd">
<!-- Creator: CorelDRAW 2018 (64-Bit) -->
<svg xmlns="http://www.w3.org/2000/svg" xml:space="preserve" width="210px" height="32px" version="1.1" style="shape-rendering:geometricPrecision; text-rendering:geometricPrecision; image-rendering:optimizeQuality; fill-rule:evenodd; clip-rule:evenodd"
viewBox="0 0 210 32"
 xmlns:xlink="http://www.w3.org/1999/xlink">
 <defs>
  <style type="text/css">
   <![CDATA[
    .fil2 {fill:none}
    .fil1 {fill:#FEFEFE;fill-rule:nonzero}
    .fil0 {fill:#E95D37;fill-rule:nonzero}
   ]]>
  </style>
 </defs>
 <g id="Layer_x0020_1">
  <metadata id="CorelCorpID_0Corel-Layer"/>
  <polygon class="fil0" points="37.56,31.32 7.53,31.32 7.53,1.29 37.56,1.29 "/>
  <path class="fil1" d="M35.61 19.16c0.43,-7.21 -24.81,-8 -20.47,-1.72 -6.55,-9.45 21.5,-12.04 20.47,1.72z"/>
  <path class="fil1" d="M9.48 13.44c-0.43,7.21 24.81,8 20.47,1.72 6.55,9.46 -21.51,12.04 -20.47,-1.72z"/>
  <path class="fil1" d="M19.89 16.3c0,-1.49 1.21,-2.7 2.7,-2.7 1.5,0 2.71,1.21 2.71,2.7 0,1.5 -1.21,2.71 -2.71,2.71 -1.49,0 -2.7,-1.21 -2.7,-2.71z"/>
  <polygon class="fil1" points="97.68,18.65 95.76,13.96 84.93,13.96 84.93,18.65 "/>
  <polygon class="fil1" points="65.3,27.56 72.99,27.56 72.99,5.06 66.28,5.06 66.28,19.55 53.29,5.06 45.12,5.06 45.12,27.56 51.84,27.56 51.84,12.58 "/>
  <polygon class="fil1" points="195.27,27.56 202.97,27.56 202.97,5.06 196.26,5.06 196.26,19.55 183.26,5.06 175.09,5.06 175.09,27.56 181.81,27.56 181.81,12.58 "/>
  <polygon class="fil1" points="114.1,14 111.37,21.32 110.84,22.74 110.32,21.31 104.41,5.06 76.02,5.06 76.02,7.93 76.02,27.55 79.46,27.55 101.25,27.55 99.36,22.85 83.19,22.85 82.63,22.85 82.63,22.29 82.63,18.54 82.63,13.35 82.63,10.06 82.63,9.51 83.18,9.5 84.74,9.48 98.91,9.48 99.29,9.48 99.43,9.83 106.66,27.55 115.09,27.55 120.56,14 "/>
  <path class="fil1" d="M166.33 20.12c-0.29,0.96 -0.71,1.81 -1.24,2.53 -0.52,0.7 -1.16,1.22 -1.88,1.55 -0.7,0.33 -1.45,0.49 -2.21,0.49l-1.63 0 -0.04 0c-0.76,0 -1.5,-0.16 -2.22,-0.49 -0.72,-0.33 -1.35,-0.86 -1.87,-1.55 -0.54,-0.72 -0.95,-1.57 -1.24,-2.53 -0.29,-0.95 -0.42,-2.16 -0.42,-3.67 0,-1.42 0.14,-2.66 0.44,-3.67 0.3,-1.04 0.72,-1.9 1.23,-2.57 0.56,-0.71 1.2,-1.22 1.91,-1.53 0.69,-0.3 1.42,-0.46 2.17,-0.46l0.04 0 1.59 0c0.79,0 1.52,0.16 2.21,0.46 0.7,0.31 1.34,0.82 1.9,1.53 0.51,0.67 0.93,1.53 1.23,2.56 0.31,1.03 0.45,2.26 0.45,3.68 0,1.49 -0.14,2.73 -0.42,3.67zm-5.29 -16.12l-0.02 0 -1.72 0c-3.6,0 -6.45,1.11 -8.49,3.31 -2.05,2.21 -3.09,5.29 -3.09,9.16 0,3.87 1.04,6.94 3.09,9.15 2.04,2.18 4.89,3.29 8.47,3.29l1.74 0c3.61,0 6.45,-1.11 8.49,-3.29 2.05,-2.2 3.09,-5.28 3.09,-9.16 0,-3.87 -1.04,-6.95 -3.09,-9.15 -2.04,-2.2 -4.88,-3.31 -8.47,-3.31z"/>
  <path class="fil1" d="M140.21 20.22l0.03 0c1.48,-0.22 2.69,-0.82 3.61,-1.8 0.79,-0.83 1.32,-1.89 1.59,-3.14 0.02,-0.18 0.13,-0.87 0.16,-1.03 0.11,-1.03 0.06,-1.96 0.06,-2.61 0,-0.55 -0.03,-1.03 -0.1,-1.49 -0.27,-1.27 -0.79,-2.34 -1.58,-3.18 -1.17,-1.26 -2.8,-1.9 -4.85,-1.91 -0.02,0 -0.04,-0.01 -0.06,-0.01l-0.01 0 -1 0c-0.02,0 -0.03,0.01 -0.05,0.01l-4.58 0 -16.06 0 -1.88 4.91 16.11 0 5.21 0c0.02,0 0.04,0 0.06,0l0.38 0 0.01 0c0.07,0 0.14,0 0.2,0.01 0.71,0.04 1.27,0.28 1.69,0.73 0.46,0.49 0.69,1.18 0.69,2.04 0,0.16 -0.01,0.32 -0.03,0.47l0 0c0,0.01 0,0.05 -0.01,0.13 -0.09,0.59 -0.31,1.07 -0.65,1.44 -0.32,0.35 -0.73,0.57 -1.23,0.67 -0.03,0.01 -0.06,0.01 -0.09,0.02 0,0 -0.01,0 -0.01,0 -0.25,0.05 -0.51,0.06 -0.79,0.06l-5.14 0 -1.29 0 0 -0.13 0 -1.34 -6.71 0 0 13.49 6.71 0 0 -7.25 2.82 0 5.44 7.25 7.64 0 -6.29 -7.34z"/>
  <polygon class="fil2" points="0.03,-0.06 210.03,-0.06 210.03,31.94 0.03,31.94 "/>
 </g>
</svg>
