<?xml version="1.0" encoding="UTF-8"?>
<!DOCTYPE svg PUBLIC "-//W3C//DTD SVG 1.1//EN" "http://www.w3.org/Graphics/SVG/1.1/DTD/svg11.dtd">
<!-- Creator: CorelDRAW 2018 (64-Bit) -->
<svg xmlns="http://www.w3.org/2000/svg" xml:space="preserve" width="700px" height="68px" version="1.1" style="shape-rendering:geometricPrecision; text-rendering:geometricPrecision; image-rendering:optimizeQuality; fill-rule:evenodd; clip-rule:evenodd"
viewBox="0 0 700 68"
 xmlns:xlink="http://www.w3.org/1999/xlink">
 <defs>
  <style type="text/css">
   <![CDATA[
    .fil3 {fill:none}
    .fil1 {fill:#FEFEFE;fill-rule:nonzero}
    .fil2 {fill:#FEFEFE;fill-rule:nonzero}
    .fil0 {fill:#612D87;fill-rule:nonzero}
   ]]>
  </style>
 </defs>
 <g id="Layer_x0020_1">
  <metadata id="CorelCorpID_0Corel-Layer"/>
  <g id="_1714698486832">
   <polygon class="fil0" points="72.93,65.94 9.17,65.94 9.17,2.18 72.93,2.18 "/>
   <path class="fil1" d="M68.8 40.12c0.91,-15.29 -52.69,-16.98 -43.47,-3.65 -13.9,-20.06 45.65,-25.55 43.47,3.65z"/>
   <path class="fil1" d="M13.3 27.99c-0.91,15.3 52.68,16.98 43.47,3.65 13.9,20.08 -45.66,25.55 -43.47,-3.65z"/>
   <path class="fil1" d="M35.41 34.06c0,-3.17 2.57,-5.74 5.74,-5.74 3.17,0 5.74,2.57 5.74,5.74 0,3.17 -2.57,5.74 -5.74,5.74 -3.17,0 -5.74,-2.57 -5.74,-5.74z"/>
  </g>
  <path class="fil2" d="M119.16 10.39c-12.36,0 -19.88,10.27 -19.88,23.5 0,12.76 6.72,23.1 19.2,23.1 11.82,0 19.95,-8.33 19.95,-23.84 0,-11.88 -6.25,-22.76 -19.27,-22.76zm-0.27 7.99c6.11,0 9.2,7.05 9.2,15.11 0,8.93 -3.23,15.51 -9.14,15.51 -5.84,0 -9.33,-5.98 -9.33,-15.24 0,-9.07 3.36,-15.38 9.27,-15.38zm25.91 37.94l9.74 0 0 -16.39c0.81,0.07 1.81,0.14 2.95,0.14 5.31,0 10.28,-1.48 13.57,-4.63 2.62,-2.49 4.09,-6.18 4.09,-10.75 0,-4.29 -1.74,-8.05 -4.56,-10.34 -3.02,-2.48 -7.39,-3.62 -13.36,-3.62 -5.38,0 -9.47,0.4 -12.43,0.94l0 44.65zm9.74 -37.67c0.67,-0.2 1.88,-0.33 3.56,-0.33 4.83,0 7.32,2.68 7.32,6.78 0,4.49 -2.96,7.31 -8.06,7.31 -1.21,0 -2.08,0 -2.82,-0.2l0 -13.56zm51.36 10.27l-14.77 0 0 -9.67 15.58 0 0 -8.19 -25.38 0 0 45.26 26.32 0 0 -8.19 -16.52 0 0 -11.15 14.77 0 0 -8.06zm17.33 27.4l0 -12.56c0,-7.92 -0.14,-14.5 -0.47,-20.07l0.2 0c1.88,4.9 4.56,10.67 6.91,15.24l8.8 17.39 9.94 0 0 -45.26 -8.87 0 0 12.22c0,7.32 0.27,13.9 0.81,19.54l-0.13 0c-1.82,-4.76 -4.3,-10.47 -6.65,-14.84l-8.66 -16.92 -10.75 0 0 45.26 8.87 0zm65.39 0l13.77 -45.26 -10.54 0 -4.97 19.34c-1.28,5.17 -2.55,10.54 -3.49,15.91l-0.21 0c-0.93,-5.5 -2.14,-10.74 -3.49,-15.98l-4.83 -19.27 -10.74 0 13.16 45.26 11.34 0zm18.33 -45.26l0 45.26 9.81 0 0 -45.26 -9.81 0zm16.52 43.38c2.22,1.27 6.85,2.48 11.55,2.48 11.35,0 17.19,-6.18 17.19,-13.96 0,-5.84 -3.23,-10.14 -10.61,-13.37 -5.57,-2.41 -7.72,-3.69 -7.72,-6.58 0,-2.28 2.01,-4.43 6.24,-4.43 3.83,0 6.72,1.14 8.33,1.95l2.01 -7.99c-2.28,-1.14 -5.71,-2.08 -10.2,-2.08 -10.28,0 -16.25,5.91 -16.25,13.5 0,5.84 4.09,10.13 11.28,13.16 4.9,2.08 7.05,3.69 7.05,6.64 0,2.96 -2.35,4.97 -6.92,4.97 -3.83,0 -7.72,-1.21 -10.14,-2.48l-1.81 8.19zm35.18 -43.38l0 45.26 9.81 0 0 -45.26 -9.81 0zm36.13 -0.67c-12.36,0 -19.88,10.27 -19.88,23.5 0,12.76 6.72,23.1 19.2,23.1 11.82,0 19.95,-8.33 19.95,-23.84 0,-11.88 -6.25,-22.76 -19.27,-22.76zm-0.27 7.99c6.11,0 9.19,7.05 9.19,15.11 0,8.93 -3.22,15.51 -9.13,15.51 -5.84,0 -9.33,-5.98 -9.33,-15.24 0,-9.07 3.36,-15.38 9.27,-15.38zm34.78 37.94l0 -12.56c0,-7.92 -0.14,-14.5 -0.47,-20.07l0.2 0c1.88,4.9 4.56,10.67 6.91,15.24l8.8 17.39 9.94 0 0 -45.26 -8.87 0 0 12.22c0,7.32 0.27,13.9 0.81,19.54l-0.14 0c-1.81,-4.76 -4.29,-10.47 -6.64,-14.84l-8.66 -16.92 -10.75 0 0 45.26 8.87 0zm57.27 0l0 -25.72 6.24 0 0 -7.11 -6.31 0 0 -1.68c0,-3.09 1.28,-5.71 4.5,-5.71 1.34,0 2.35,0.2 3.16,0.47l0.6 -7.52c-1.41,-0.4 -3.16,-0.74 -5.37,-0.74 -3.09,0 -6.38,0.94 -8.73,3.22 -2.82,2.69 -3.96,6.79 -3.96,10.68l0 1.28 -4.37 0 0 7.11 4.37 0 0 25.72 9.87 0zm24.57 -33.57c-9.4,0 -16.11,6.37 -16.11,17.32 0,10.67 6.58,16.92 15.64,16.92 7.66,0 15.85,-4.84 15.85,-17.39 0,-10.01 -6.04,-16.85 -15.38,-16.85zm-0.27 7.11c4.17,0 5.64,5.24 5.64,10.01 0,5.57 -1.94,10 -5.57,10 -4.03,0 -5.98,-4.36 -5.98,-10 0,-4.77 1.55,-10.01 5.91,-10.01zm21.56 26.46l9.8 0 0 -16.65c0,-1.01 0.13,-1.88 0.27,-2.55 0.74,-3.3 3.29,-5.04 6.51,-5.04 1.01,0 1.75,0.07 2.48,0.2l0 -9.33c-0.67,-0.14 -1.14,-0.2 -2.08,-0.2 -2.95,0 -6.58,2.01 -8.19,6.37l-0.2 0 -0.4 -5.63 -8.46 0c0.2,2.88 0.27,6.17 0.27,10.54l0 22.29zm41.76 0.67c3.42,0 5.77,-2.49 5.77,-6.04 -0.06,-3.76 -2.41,-6.18 -5.77,-6.18 -3.29,0 -5.78,2.55 -5.78,6.18 0,3.55 2.42,6.04 5.71,6.04l0.07 0zm21.01 -0.67l0 -12.56c0,-7.92 -0.13,-14.5 -0.47,-20.07l0.21 0c1.87,4.9 4.56,10.67 6.91,15.24l8.8 17.39 9.93 0 0 -45.26 -8.86 0 0 12.22c0,7.32 0.27,13.9 0.81,19.54l-0.14 0c-1.81,-4.76 -4.29,-10.47 -6.65,-14.84l-8.66 -16.92 -10.74 0 0 45.26 8.86 0zm58.55 -27.4l-14.77 0 0 -9.67 15.58 0 0 -8.19 -25.38 0 0 45.26 26.32 0 0 -8.19 -16.52 0 0 -11.15 14.77 0 0 -8.06zm16.25 27.4l9.8 0 0 -36.8 11.08 0 0 -8.46 -31.82 0 0 8.46 10.94 0 0 36.8z"/>
  <polygon class="fil3" points="-0.08,0.01 699.92,0.01 699.92,68.01 -0.08,68.01 "/>
 </g>
</svg>
